{
	"asset":{
		"generator":"Khronos glTF Blender I/O v4.0.44",
		"version":"2.0"
	},
	"scene":0,
	"scenes":[
		{
			"name":"Scene",
			"nodes":[
				2
			]
		}
	],
	"nodes":[
		{
			"mesh":0,
			"name":"Object_2"
		},
		{
			"children":[
				0
			],
			"name":"scaniverse-20210710-221729.obj.cleaner.materialmerger.gles"
		},
		{
			"children":[
				1
			],
			"name":"Sketchfab_model",
			"rotation":[
				-0.70710688829422,
				0,
				0,
				0.7071066498756409
			]
		}
	],
	"materials":[
		{
			"doubleSided":true,
			"name":"main",
			"pbrMetallicRoughness":{
				"baseColorTexture":{
					"index":0
				},
				"metallicFactor":0,
				"roughnessFactor":0.5
			}
		}
	],
	"meshes":[
		{
			"name":"Object_0",
			"primitives":[
				{
					"attributes":{
						"POSITION":0,
						"NORMAL":1,
						"TEXCOORD_0":2
					},
					"indices":3,
					"material":0
				}
			]
		}
	],
	"textures":[
		{
			"sampler":0,
			"source":0
		}
	],
	"images":[
		{
			"mimeType":"image/jpeg",
			"name":"main_baseColor",
			"uri":"textures/main_baseColor.jpg"
		}
	],
	"accessors":[
		{
			"bufferView":0,
			"componentType":5126,
			"count":10260,
			"max":[
				0.6270999908447266,
				0.9801999926567078,
				2.1758999824523926
			],
			"min":[
				-0.8765000104904175,
				-2.1849000453948975,
				0.3779999911785126
			],
			"type":"VEC3"
		},
		{
			"bufferView":1,
			"componentType":5126,
			"count":10260,
			"type":"VEC3"
		},
		{
			"bufferView":2,
			"componentType":5126,
			"count":10260,
			"type":"VEC2"
		},
		{
			"bufferView":3,
			"componentType":5123,
			"count":39141,
			"type":"SCALAR"
		}
	],
	"bufferViews":[
		{
			"buffer":0,
			"byteLength":123120,
			"byteOffset":0,
			"target":34962
		},
		{
			"buffer":0,
			"byteLength":123120,
			"byteOffset":123120,
			"target":34962
		},
		{
			"buffer":0,
			"byteLength":82080,
			"byteOffset":246240,
			"target":34962
		},
		{
			"buffer":0,
			"byteLength":78282,
			"byteOffset":328320,
			"target":34963
		}
	],
	"samplers":[
		{
			"magFilter":9729,
			"minFilter":9987
		}
	],
	"buffers":[
		{
			"byteLength":406604,
			"uri":"scene.bin"
		}
	]
}
