{
  "accessors": [
    {
      "bufferView": 2,
      "componentType": 5126,
      "count": 5119,
      "max": [
        1.4737000465393066,
        2.7539000511169434,
        6.590199947357178
      ],
      "min": [
        -1.3343000411987305,
        -2.697000026702881,
        -0.02239999920129776
      ],
      "type": "VEC3"
    },
    {
      "bufferView": 2,
      "byteOffset": 61428,
      "componentType": 5126,
      "count": 5119,
      "max": [
        0.9997710585594177,
        0.9994455575942993,
        0.9999674558639526
      ],
      "min": [
        -0.9998144507408142,
        -0.9998657703399658,
        -0.9999951124191284
      ],
      "type": "VEC3"
    },
    {
      "bufferView": 3,
      "componentType": 5126,
      "count": 5119,
      "max": [
        0.9999963641166687,
        0.999992311000824,
        0.9999807476997375,
        1.0
      ],
      "min": [
        -0.9999576807022095,
        -0.9991903305053711,
        -0.9991095662117004,
        1.0
      ],
      "type": "VEC4"
    },
    {
      "bufferView": 1,
      "componentType": 5126,
      "count": 5119,
      "max": [
        0.9735999703407288,
        0.9980000257492065
      ],
      "min": [
        0.0020000000949949026,
        0.0020000000949949026
      ],
      "type": "VEC2"
    },
    {
      "bufferView": 0,
      "componentType": 5125,
      "count": 28962,
      "type": "SCALAR"
    }
  ],
  "asset": {
    "extras": {
      "author": "dima051983 (https://sketchfab.com/dima051983)",
      "license": "CC-BY-4.0 (http://creativecommons.org/licenses/by/4.0/)",
      "source": "https://sketchfab.com/3d-models/fe1ca729b8694482acdb625e006ef2cd",
      "title": "Каслинское литьё СССР. Сидящая собака."
    },
    "generator": "Sketchfab-12.67.0",
    "version": "2.0"
  },
  "bufferViews": [
    {
      "buffer": 0,
      "byteLength": 115848,
      "name": "floatBufferViews",
      "target": 34963
    },
    {
      "buffer": 0,
      "byteLength": 40952,
      "byteOffset": 115848,
      "byteStride": 8,
      "name": "floatBufferViews",
      "target": 34962
    },
    {
      "buffer": 0,
      "byteLength": 122856,
      "byteOffset": 156800,
      "byteStride": 12,
      "name": "floatBufferViews",
      "target": 34962
    },
    {
      "buffer": 0,
      "byteLength": 81904,
      "byteOffset": 279656,
      "byteStride": 16,
      "name": "floatBufferViews",
      "target": 34962
    }
  ],
  "buffers": [
    {
      "byteLength": 361560,
      "uri": "scene.bin"
    }
  ],
  "images": [
    {
      "uri": "textures/sobaka_LP12kdefault_baseColor.jpeg"
    },
    {
      "uri": "textures/sobaka_LP12kdefault_metallicRoughness.png"
    },
    {
      "uri": "textures/sobaka_LP12kdefault_normal.png"
    }
  ],
  "materials": [
    {
      "doubleSided": true,
      "name": "sobaka_LP12kdefault",
      "normalTexture": {
        "index": 2
      },
      "occlusionTexture": {
        "index": 1
      },
      "pbrMetallicRoughness": {
        "baseColorTexture": {
          "index": 0
        },
        "metallicFactor": 0.5489256334020393,
        "metallicRoughnessTexture": {
          "index": 1
        },
        "roughnessFactor": 0.5246049407487126
      }
    }
  ],
  "meshes": [
    {
      "name": "Object_0",
      "primitives": [
        {
          "attributes": {
            "NORMAL": 1,
            "POSITION": 0,
            "TANGENT": 2,
            "TEXCOORD_0": 3
          },
          "indices": 4,
          "material": 0,
          "mode": 4
        }
      ]
    }
  ],
  "nodes": [
    {
      "children": [
        1
      ],
      "matrix": [
        1.0,
        0.0,
        0.0,
        0.0,
        0.0,
        2.220446049250313e-16,
        -1.0,
        0.0,
        0.0,
        1.0,
        2.220446049250313e-16,
        0.0,
        0.0,
        0.0,
        0.0,
        1.0
      ],
      "name": "Sketchfab_model"
    },
    {
      "children": [
        2
      ],
      "name": "Kasli_sobaka_LP.obj.cleaner.materialmerger.gles"
    },
    {
      "mesh": 0,
      "name": "Object_2"
    }
  ],
  "samplers": [
    {
      "magFilter": 9729,
      "minFilter": 9987,
      "wrapS": 10497,
      "wrapT": 10497
    }
  ],
  "scene": 0,
  "scenes": [
    {
      "name": "Sketchfab_Scene",
      "nodes": [
        0
      ]
    }
  ],
  "textures": [
    {
      "sampler": 0,
      "source": 0
    },
    {
      "sampler": 0,
      "source": 1
    },
    {
      "sampler": 0,
      "source": 2
    }
  ]
}
