{
  "accessors": [
    {
      "bufferView": 2,
      "componentType": 5126,
      "count": 16,
      "max": [
        7.777307510375977,
        23.695301055908203,
        10.645586013793945
      ],
      "min": [
        -8.62782096862793,
        4.785332679748535,
        2.568033456802368
      ],
      "type": "VEC3"
    },
    {
      "bufferView": 2,
      "byteOffset": 192,
      "componentType": 5126,
      "count": 16,
      "max": [
        0.6053939461708069,
        0.3166855573654175,
        0.9469261169433594
      ],
      "min": [
        -0.6919690370559692,
        0.3130091428756714,
        0.6498004794120789
      ],
      "type": "VEC3"
    },
    {
      "bufferView": 1,
      "componentType": 5126,
      "count": 16,
      "max": [
        0.7446379065513611,
        0.4291350841522217
      ],
      "min": [
        0.3634616732597351,
        0.007338087074458599
      ],
      "type": "VEC2"
    },
    {
      "bufferView": 1,
      "byteOffset": 128,
      "componentType": 5126,
      "count": 16,
      "max": [
        0.7446379065513611,
        0.4291350841522217
      ],
      "min": [
        0.3634616732597351,
        0.007338087074458599
      ],
      "type": "VEC2"
    },
    {
      "bufferView": 0,
      "componentType": 5125,
      "count": 42,
      "type": "SCALAR"
    },
    {
      "bufferView": 2,
      "byteOffset": 384,
      "componentType": 5126,
      "count": 638,
      "max": [
        11.089818000793457,
        34.36778259277344,
        11.0679349899292
      ],
      "min": [
        -11.002373695373535,
        -0.09571516513824463,
        -11.067935943603516
      ],
      "type": "VEC3"
    },
    {
      "bufferView": 2,
      "byteOffset": 8040,
      "componentType": 5126,
      "count": 638,
      "max": [
        0.9998756647109985,
        1.0,
        0.9979013204574585
      ],
      "min": [
        -0.9989383220672607,
        -1.0,
        -0.9979013204574585
      ],
      "type": "VEC3"
    },
    {
      "bufferView": 1,
      "byteOffset": 256,
      "componentType": 5126,
      "count": 638,
      "max": [
        0.992125928401947,
        0.9245989322662354
      ],
      "min": [
        0.007874015718698502,
        0.00740446150302887
      ],
      "type": "VEC2"
    },
    {
      "bufferView": 1,
      "byteOffset": 5360,
      "componentType": 5126,
      "count": 638,
      "max": [
        0.992125928401947,
        0.9245989322662354
      ],
      "min": [
        0.007874015718698502,
        0.00740446150302887
      ],
      "type": "VEC2"
    },
    {
      "bufferView": 0,
      "byteOffset": 168,
      "componentType": 5125,
      "count": 2700,
      "type": "SCALAR"
    },
    {
      "bufferView": 2,
      "byteOffset": 15696,
      "componentType": 5126,
      "count": 16,
      "max": [
        7.777307510375977,
        23.695301055908203,
        10.645583152770996
      ],
      "min": [
        -8.62782096862793,
        4.785332679748535,
        2.568031072616577
      ],
      "type": "VEC3"
    },
    {
      "bufferView": 2,
      "byteOffset": 15888,
      "componentType": 5126,
      "count": 16,
      "max": [
        0.6053940057754517,
        0.3166855573654175,
        0.9469261169433594
      ],
      "min": [
        -0.6919689774513245,
        0.3130091428756714,
        0.6498005986213684
      ],
      "type": "VEC3"
    },
    {
      "bufferView": 1,
      "byteOffset": 10464,
      "componentType": 5126,
      "count": 16,
      "max": [
        0.7446379065513611,
        0.4291350841522217
      ],
      "min": [
        0.3634616732597351,
        0.007338087074458599
      ],
      "type": "VEC2"
    },
    {
      "bufferView": 1,
      "byteOffset": 10592,
      "componentType": 5126,
      "count": 16,
      "max": [
        0.7446379065513611,
        0.4291350841522217
      ],
      "min": [
        0.3634616732597351,
        0.007338087074458599
      ],
      "type": "VEC2"
    },
    {
      "bufferView": 1,
      "byteOffset": 10720,
      "componentType": 5126,
      "count": 16,
      "max": [
        0.7446379065513611,
        0.4291350841522217
      ],
      "min": [
        0.3634616732597351,
        0.007338087074458599
      ],
      "type": "VEC2"
    },
    {
      "bufferView": 0,
      "byteOffset": 10968,
      "componentType": 5125,
      "count": 42,
      "type": "SCALAR"
    },
    {
      "bufferView": 2,
      "byteOffset": 16080,
      "componentType": 5126,
      "count": 638,
      "max": [
        11.089818000793457,
        34.36778259277344,
        11.0679349899292
      ],
      "min": [
        -11.002373695373535,
        -0.09571516513824463,
        -11.067935943603516
      ],
      "type": "VEC3"
    },
    {
      "bufferView": 2,
      "byteOffset": 23736,
      "componentType": 5126,
      "count": 638,
      "max": [
        0.9998756647109985,
        1.0,
        0.9979013204574585
      ],
      "min": [
        -0.9989383220672607,
        -1.0,
        -0.9979013204574585
      ],
      "type": "VEC3"
    },
    {
      "bufferView": 1,
      "byteOffset": 10848,
      "componentType": 5126,
      "count": 638,
      "max": [
        0.992125928401947,
        0.9245989322662354
      ],
      "min": [
        0.007874015718698502,
        0.00740446150302887
      ],
      "type": "VEC2"
    },
    {
      "bufferView": 1,
      "byteOffset": 15952,
      "componentType": 5126,
      "count": 638,
      "max": [
        0.992125928401947,
        0.9245989322662354
      ],
      "min": [
        0.007874015718698502,
        0.00740446150302887
      ],
      "type": "VEC2"
    },
    {
      "bufferView": 0,
      "byteOffset": 11136,
      "componentType": 5125,
      "count": 2700,
      "type": "SCALAR"
    },
    {
      "bufferView": 2,
      "byteOffset": 31392,
      "componentType": 5126,
      "count": 16,
      "max": [
        7.777307510375977,
        23.695301055908203,
        10.645583152770996
      ],
      "min": [
        -8.62782096862793,
        4.785332679748535,
        2.568031072616577
      ],
      "type": "VEC3"
    },
    {
      "bufferView": 2,
      "byteOffset": 31584,
      "componentType": 5126,
      "count": 16,
      "max": [
        0.6053940057754517,
        0.3166855573654175,
        0.9469261169433594
      ],
      "min": [
        -0.6919689774513245,
        0.3130091428756714,
        0.6498005986213684
      ],
      "type": "VEC3"
    },
    {
      "bufferView": 1,
      "byteOffset": 21056,
      "componentType": 5126,
      "count": 16,
      "max": [
        0.7446379065513611,
        0.4291350841522217
      ],
      "min": [
        0.3634616732597351,
        0.007338087074458599
      ],
      "type": "VEC2"
    },
    {
      "bufferView": 1,
      "byteOffset": 21184,
      "componentType": 5126,
      "count": 16,
      "max": [
        0.7446379065513611,
        0.4291350841522217
      ],
      "min": [
        0.3634616732597351,
        0.007338087074458599
      ],
      "type": "VEC2"
    },
    {
      "bufferView": 0,
      "byteOffset": 21936,
      "componentType": 5125,
      "count": 42,
      "type": "SCALAR"
    },
    {
      "bufferView": 2,
      "byteOffset": 31776,
      "componentType": 5126,
      "count": 638,
      "max": [
        11.089818000793457,
        34.36778259277344,
        11.0679349899292
      ],
      "min": [
        -11.002373695373535,
        -0.09571516513824463,
        -11.067935943603516
      ],
      "type": "VEC3"
    },
    {
      "bufferView": 2,
      "byteOffset": 39432,
      "componentType": 5126,
      "count": 638,
      "max": [
        0.9998756647109985,
        1.0,
        0.9979013204574585
      ],
      "min": [
        -0.9989383220672607,
        -1.0,
        -0.9979013204574585
      ],
      "type": "VEC3"
    },
    {
      "bufferView": 1,
      "byteOffset": 21312,
      "componentType": 5126,
      "count": 638,
      "max": [
        0.992125928401947,
        0.9245989322662354
      ],
      "min": [
        0.007874015718698502,
        0.00740446150302887
      ],
      "type": "VEC2"
    },
    {
      "bufferView": 1,
      "byteOffset": 26416,
      "componentType": 5126,
      "count": 638,
      "max": [
        0.992125928401947,
        0.9245989322662354
      ],
      "min": [
        0.007874015718698502,
        0.00740446150302887
      ],
      "type": "VEC2"
    },
    {
      "bufferView": 0,
      "byteOffset": 22104,
      "componentType": 5125,
      "count": 2700,
      "type": "SCALAR"
    }
  ],
  "asset": {
    "extras": {
      "author": "Naked Singularity (https://sketchfab.com/nakedsingularity)",
      "license": "CC-BY-4.0 (http://creativecommons.org/licenses/by/4.0/)",
      "source": "https://sketchfab.com/3d-models/free-conical-flask-laboratory-low-poly-f2991abcaaa44616ad5f72d29a3d47b3",
      "title": "FREE Conical Flask | Laboratory | Low poly"
    },
    "generator": "Sketchfab-14.81.0",
    "version": "2.0"
  },
  "bufferViews": [
    {
      "buffer": 0,
      "byteLength": 32904,
      "name": "floatBufferViews",
      "target": 34963
    },
    {
      "buffer": 0,
      "byteLength": 31520,
      "byteOffset": 32904,
      "byteStride": 8,
      "name": "floatBufferViews",
      "target": 34962
    },
    {
      "buffer": 0,
      "byteLength": 47088,
      "byteOffset": 64424,
      "byteStride": 12,
      "name": "floatBufferViews",
      "target": 34962
    }
  ],
  "buffers": [
    {
      "byteLength": 111512,
      "uri": "scene.bin"
    }
  ],
  "extensionsUsed": [
    "KHR_materials_transmission",
    "KHR_materials_specular"
  ],
  "images": [
    {
      "uri": "textures/mid_text_baseColor.png"
    },
    {
      "uri": "textures/big_text_baseColor.png"
    },
    {
      "uri": "textures/small_text_baseColor.png"
    }
  ],
  "materials": [
    {
      "alphaMode": "BLEND",
      "doubleSided": true,
      "name": "mid_text",
      "pbrMetallicRoughness": {
        "baseColorTexture": {
          "index": 0
        },
        "metallicFactor": 0.0,
        "roughnessFactor": 0.6
      }
    },
    {
      "alphaMode": "BLEND",
      "doubleSided": true,
      "extensions": {
        "KHR_materials_specular": {
          "specularColorFactor": [
            1.0,
            1.0,
            1.0
          ],
          "specularFactor": 1.0
        },
        "KHR_materials_transmission": {
          "transmissionFactor": 1.0
        }
      },
      "name": "glas",
      "pbrMetallicRoughness": {
        "baseColorFactor": [
          1.0,
          1.0,
          1.0,
          0.25
        ],
        "metallicFactor": 0.0,
        "roughnessFactor": 0.0289522927168222
      }
    },
    {
      "alphaMode": "BLEND",
      "doubleSided": true,
      "name": "big_text",
      "pbrMetallicRoughness": {
        "baseColorTexture": {
          "index": 1
        },
        "metallicFactor": 0.0,
        "roughnessFactor": 0.6
      }
    },
    {
      "alphaMode": "BLEND",
      "doubleSided": true,
      "name": "small_text",
      "pbrMetallicRoughness": {
        "baseColorTexture": {
          "index": 2
        },
        "metallicFactor": 0.0,
        "roughnessFactor": 0.6
      }
    }
  ],
  "meshes": [
    {
      "name": "Conical_flask_mid_mid_text_0",
      "primitives": [
        {
          "attributes": {
            "NORMAL": 1,
            "POSITION": 0,
            "TEXCOORD_0": 2,
            "TEXCOORD_1": 3
          },
          "indices": 4,
          "material": 0,
          "mode": 4
        }
      ]
    },
    {
      "name": "Conical_flask_mid_glas_0",
      "primitives": [
        {
          "attributes": {
            "NORMAL": 6,
            "POSITION": 5,
            "TEXCOORD_0": 7,
            "TEXCOORD_1": 8
          },
          "indices": 9,
          "material": 1,
          "mode": 4
        }
      ]
    },
    {
      "name": "Conical_flask_big_big_text_0",
      "primitives": [
        {
          "attributes": {
            "NORMAL": 11,
            "POSITION": 10,
            "TEXCOORD_0": 12,
            "TEXCOORD_1": 13,
            "TEXCOORD_2": 14
          },
          "indices": 15,
          "material": 2,
          "mode": 4
        }
      ]
    },
    {
      "name": "Conical_flask_big_glas_0",
      "primitives": [
        {
          "attributes": {
            "NORMAL": 17,
            "POSITION": 16,
            "TEXCOORD_0": 18,
            "TEXCOORD_1": 19
          },
          "indices": 20,
          "material": 1,
          "mode": 4
        }
      ]
    },
    {
      "name": "Conical_flask_small_small_text_0",
      "primitives": [
        {
          "attributes": {
            "NORMAL": 22,
            "POSITION": 21,
            "TEXCOORD_0": 23,
            "TEXCOORD_1": 24
          },
          "indices": 25,
          "material": 3,
          "mode": 4
        }
      ]
    },
    {
      "name": "Conical_flask_small_glas_0",
      "primitives": [
        {
          "attributes": {
            "NORMAL": 27,
            "POSITION": 26,
            "TEXCOORD_0": 28,
            "TEXCOORD_1": 29
          },
          "indices": 30,
          "material": 1,
          "mode": 4
        }
      ]
    }
  ],
  "nodes": [
    {
      "children": [
        1
      ],
      "matrix": [
        1.0,
        0.0,
        0.0,
        0.0,
        0.0,
        2.220446049250313e-16,
        -1.0,
        0.0,
        0.0,
        1.0,
        2.220446049250313e-16,
        0.0,
        0.0,
        0.0,
        0.0,
        1.0
      ],
      "name": "Sketchfab_model"
    },
    {
      "children": [
        2
      ],
      "matrix": [
        0.009999999776482582,
        0.0,
        0.0,
        0.0,
        0.0,
        0.0,
        0.009999999776482582,
        0.0,
        0.0,
        -0.009999999776482582,
        0.0,
        0.0,
        0.0,
        0.0,
        0.0,
        1.0
      ],
      "name": "SM_Conical_flask_NakedSingularity.fbx"
    },
    {
      "children": [
        3,
        6,
        9
      ],
      "name": "RootNode"
    },
    {
      "children": [
        4,
        5
      ],
      "matrix": [
        0.48919654131653323,
        0.0,
        -0.5744133924557996,
        0.0,
        0.0,
        0.7544958591461182,
        0.0,
        0.0,
        0.5744133924557996,
        0.0,
        0.48919654131653323,
        0.0,
        1.110694169998169,
        0.07221669703722,
        11.342422485351563,
        1.0
      ],
      "name": "Conical_flask_mid"
    },
    {
      "mesh": 0,
      "name": "Conical_flask_mid_mid_text_0"
    },
    {
      "mesh": 1,
      "name": "Conical_flask_mid_glas_0"
    },
    {
      "children": [
        7,
        8
      ],
      "matrix": [
        -0.5837074029519278,
        7.148354026636927e-17,
        -0.7318458510187307,
        0.0,
        2.501584678214127e-17,
        0.9361157417297363,
        7.148354026636927e-17,
        0.0,
        0.7318458510187307,
        2.501584678214127e-17,
        -0.5837074029519278,
        0.0,
        -3.0572493076324463,
        -0.006114694755524397,
        -9.163652420043945,
        1.0
      ],
      "name": "Conical_flask_big"
    },
    {
      "mesh": 2,
      "name": "Conical_flask_big_big_text_0"
    },
    {
      "mesh": 3,
      "name": "Conical_flask_big_glas_0"
    },
    {
      "children": [
        10,
        11
      ],
      "matrix": [
        0.004129814727902608,
        0.0,
        -0.562785254969248,
        0.0,
        0.0,
        0.562800407409668,
        0.0,
        0.0,
        0.562785254969248,
        0.0,
        0.004129814727902608,
        0.0,
        14.390646934509277,
        0.05386853590607643,
        -0.2758476734161377,
        1.0
      ],
      "name": "Conical_flask_small"
    },
    {
      "mesh": 4,
      "name": "Conical_flask_small_small_text_0"
    },
    {
      "mesh": 5,
      "name": "Conical_flask_small_glas_0"
    }
  ],
  "samplers": [
    {
      "magFilter": 9729,
      "minFilter": 9987,
      "wrapS": 10497,
      "wrapT": 10497
    }
  ],
  "scene": 0,
  "scenes": [
    {
      "name": "Sketchfab_Scene",
      "nodes": [
        0
      ]
    }
  ],
  "textures": [
    {
      "sampler": 0,
      "source": 0
    },
    {
      "sampler": 0,
      "source": 1
    },
    {
      "sampler": 0,
      "source": 2
    }
  ]
}
