{
  "accessors": [
    {
      "bufferView": 2,
      "componentType": 5126,
      "count": 2157,
      "max": [
        10.695384979248047,
        3.5544471740722656,
        10.691390991210938
      ],
      "min": [
        -10.67915153503418,
        -3.5765342712402344,
        -10.691246032714844
      ],
      "type": "VEC3"
    },
    {
      "bufferView": 2,
      "byteOffset": 25884,
      "componentType": 5126,
      "count": 2157,
      "max": [
        1.0,
        1.0,
        1.0
      ],
      "min": [
        -1.0,
        -1.0,
        -1.0
      ],
      "type": "VEC3"
    },
    {
      "bufferView": 1,
      "componentType": 5126,
      "count": 2157,
      "max": [
        1.0,
        1.0
      ],
      "min": [
        0.0,
        0.0
      ],
      "type": "VEC2"
    },
    {
      "bufferView": 0,
      "componentType": 5125,
      "count": 10101,
      "type": "SCALAR"
    },
    {
      "bufferView": 2,
      "byteOffset": 51768,
      "componentType": 5126,
      "count": 230,
      "max": [
        1.1247199773788452,
        -3.5791797637939453,
        1.1248016357421875
      ],
      "min": [
        -1.124700665473938,
        -3.9753589630126953,
        -1.124603271484375
      ],
      "type": "VEC3"
    },
    {
      "bufferView": 2,
      "byteOffset": 54528,
      "componentType": 5126,
      "count": 230,
      "max": [
        0.6343874335289001,
        1.0,
        0.6343797445297241
      ],
      "min": [
        -0.6343875527381897,
        0.7730036973953247,
        -0.6343798041343689
      ],
      "type": "VEC3"
    },
    {
      "bufferView": 1,
      "byteOffset": 17256,
      "componentType": 5126,
      "count": 230,
      "max": [
        1.000000238418579,
        1.0
      ],
      "min": [
        0.0,
        0.6874999403953552
      ],
      "type": "VEC2"
    },
    {
      "bufferView": 0,
      "byteOffset": 40404,
      "componentType": 5125,
      "count": 864,
      "type": "SCALAR"
    },
    {
      "bufferView": 2,
      "byteOffset": 57288,
      "componentType": 5126,
      "count": 362,
      "max": [
        7.764606475830078,
        -2.558979034423828,
        7.76470947265625
      ],
      "min": [
        -7.764587879180908,
        -8.158023834228516,
        -7.7645111083984375
      ],
      "type": "VEC3"
    },
    {
      "bufferView": 2,
      "byteOffset": 61632,
      "componentType": 5126,
      "count": 362,
      "max": [
        1.0,
        0.5027955770492554,
        0.9999999403953552
      ],
      "min": [
        -1.0,
        -1.0,
        -1.0
      ],
      "type": "VEC3"
    },
    {
      "bufferView": 1,
      "byteOffset": 19096,
      "componentType": 5126,
      "count": 362,
      "max": [
        1.000000238418579,
        0.6250001192092896
      ],
      "min": [
        0.0,
        0.0
      ],
      "type": "VEC2"
    },
    {
      "bufferView": 0,
      "byteOffset": 43860,
      "componentType": 5125,
      "count": 1824,
      "type": "SCALAR"
    }
  ],
  "asset": {
    "extras": {
      "author": "ROY (https://sketchfab.com/roy.gearloft.in)",
      "license": "CC-BY-4.0 (http://creativecommons.org/licenses/by/4.0/)",
      "source": "https://sketchfab.com/3d-models/ceiling-lamp-87f2e0ff7af24d2d9bd5819e95663ac3",
      "title": "Ceiling Lamp"
    },
    "generator": "Sketchfab-15.27.0",
    "version": "2.0"
  },
  "bufferViews": [
    {
      "buffer": 0,
      "byteLength": 51156,
      "name": "floatBufferViews",
      "target": 34963
    },
    {
      "buffer": 0,
      "byteLength": 21992,
      "byteOffset": 51156,
      "byteStride": 8,
      "name": "floatBufferViews",
      "target": 34962
    },
    {
      "buffer": 0,
      "byteLength": 65976,
      "byteOffset": 73148,
      "byteStride": 12,
      "name": "floatBufferViews",
      "target": 34962
    }
  ],
  "buffers": [
    {
      "byteLength": 139124,
      "uri": "scene.bin"
    }
  ],
  "extensionsUsed": [
    "KHR_materials_emissive_strength"
  ],
  "materials": [
    {
      "doubleSided": true,
      "name": "Material.053",
      "pbrMetallicRoughness": {
        "baseColorFactor": [
          0.8,
          0.467724,
          0.109449,
          1.0
        ],
        "metallicFactor": 0.691589,
        "roughnessFactor": 0.219626
      }
    },
    {
      "doubleSided": true,
      "emissiveFactor": [
        1.0,
        1.0,
        1.0
      ],
      "extensions": {
        "KHR_materials_emissive_strength": {
          "emissiveStrength": 6.191433227151344
        }
      },
      "name": "Material.051"
    },
    {
      "alphaMode": "BLEND",
      "name": "Material.055",
      "pbrMetallicRoughness": {
        "baseColorFactor": [
          1.0,
          1.0,
          1.0,
          0.38229594352248036
        ]
      }
    }
  ],
  "meshes": [
    {
      "name": "Object_0",
      "primitives": [
        {
          "attributes": {
            "NORMAL": 1,
            "POSITION": 0,
            "TEXCOORD_0": 2
          },
          "indices": 3,
          "material": 0,
          "mode": 4
        }
      ]
    },
    {
      "name": "Object_1",
      "primitives": [
        {
          "attributes": {
            "NORMAL": 5,
            "POSITION": 4,
            "TEXCOORD_0": 6
          },
          "indices": 7,
          "material": 1,
          "mode": 4
        }
      ]
    },
    {
      "name": "Object_2",
      "primitives": [
        {
          "attributes": {
            "NORMAL": 9,
            "POSITION": 8,
            "TEXCOORD_0": 10
          },
          "indices": 11,
          "material": 2,
          "mode": 4
        }
      ]
    }
  ],
  "nodes": [
    {
      "children": [
        1
      ],
      "matrix": [
        0.5710590481758118,
        0.0,
        0.0,
        0.0,
        0.0,
        1.2680058074106254e-16,
        -0.5710590481758118,
        0.0,
        0.0,
        0.5710590481758118,
        1.2680058074106254e-16,
        0.0,
        0.0,
        0.0,
        0.0,
        1.0
      ],
      "name": "Sketchfab_model"
    },
    {
      "children": [
        2
      ],
      "name": "root"
    },
    {
      "children": [
        3
      ],
      "matrix": [
        1.0,
        0.0,
        0.0,
        0.0,
        0.0,
        2.220446049250313e-16,
        1.0,
        0.0,
        0.0,
        -1.0,
        2.220446049250313e-16,
        0.0,
        0.0,
        0.0,
        0.0,
        1.0
      ],
      "name": "GLTF_SceneRootNode"
    },
    {
      "children": [
        4,
        5,
        6
      ],
      "matrix": [
        0.03814439848065376,
        0.0,
        0.0,
        0.0,
        0.0,
        0.03814440593123436,
        0.0,
        0.0,
        0.0,
        0.0,
        0.03814440220594406,
        0.0,
        0.0,
        0.0,
        0.0,
        1.0
      ],
      "name": "cabin.001_15"
    },
    {
      "mesh": 0,
      "name": "Object_4"
    },
    {
      "mesh": 1,
      "name": "Object_5"
    },
    {
      "mesh": 2,
      "name": "Object_6"
    }
  ],
  "scene": 0,
  "scenes": [
    {
      "name": "Sketchfab_Scene",
      "nodes": [
        0
      ]
    }
  ]
}
