{
  "accessors": [
    {
      "bufferView": 2,
      "componentType": 5126,
      "count": 6298,
      "max": [
        1.9140681028366089,
        0.005000000353902578,
        0.5124396681785583
      ],
      "min": [
        -1.928604245185852,
        0.0,
        -0.5251374244689941
      ],
      "type": "VEC3"
    },
    {
      "bufferView": 2,
      "byteOffset": 75576,
      "componentType": 5126,
      "count": 6298,
      "max": [
        1.0,
        1.0,
        1.0
      ],
      "min": [
        -0.999997615814209,
        -1.0,
        -1.0
      ],
      "type": "VEC3"
    },
    {
      "bufferView": 1,
      "componentType": 5126,
      "count": 6298,
      "max": [
        0.9607419967651367,
        0.9804192781448364
      ],
      "min": [
        0.025905992835760117,
        0.016165558248758316
      ],
      "type": "VEC2"
    },
    {
      "bufferView": 1,
      "byteOffset": 50384,
      "componentType": 5126,
      "count": 6298,
      "max": [
        0.9607419967651367,
        0.9804192781448364
      ],
      "min": [
        0.025905992835760117,
        0.016165558248758316
      ],
      "type": "VEC2"
    },
    {
      "bufferView": 0,
      "componentType": 5125,
      "count": 9888,
      "type": "SCALAR"
    },
    {
      "bufferView": 2,
      "byteOffset": 151152,
      "componentType": 5126,
      "count": 65532,
      "max": [
        0.03813493251800537,
        0.005716165527701378,
        0.943742036819458
      ],
      "min": [
        -0.05493491515517235,
        -0.007705262862145901,
        -0.9300491809844971
      ],
      "type": "VEC3"
    },
    {
      "bufferView": 2,
      "byteOffset": 937536,
      "componentType": 5126,
      "count": 65532,
      "max": [
        1.0,
        1.0,
        1.0
      ],
      "min": [
        -1.0,
        -1.0,
        -1.0
      ],
      "type": "VEC3"
    },
    {
      "bufferView": 1,
      "byteOffset": 100768,
      "componentType": 5126,
      "count": 65532,
      "max": [
        0.10000000149011612,
        0.09999990463256836
      ],
      "min": [
        0.0,
        0.0
      ],
      "type": "VEC2"
    },
    {
      "bufferView": 0,
      "byteOffset": 39552,
      "componentType": 5125,
      "count": 378789,
      "type": "SCALAR"
    },
    {
      "bufferView": 2,
      "byteOffset": 1723920,
      "componentType": 5126,
      "count": 65532,
      "max": [
        0.03813493251800537,
        0.006157800555229187,
        0.9407183527946472
      ],
      "min": [
        -0.05493822693824768,
        -0.007117640692740679,
        -0.9399424195289612
      ],
      "type": "VEC3"
    },
    {
      "bufferView": 2,
      "byteOffset": 2510304,
      "componentType": 5126,
      "count": 65532,
      "max": [
        1.0,
        1.0,
        1.0
      ],
      "min": [
        -1.0,
        -1.0,
        -1.0
      ],
      "type": "VEC3"
    },
    {
      "bufferView": 1,
      "byteOffset": 625024,
      "componentType": 5126,
      "count": 65532,
      "max": [
        0.10000000149011612,
        0.09999990463256836
      ],
      "min": [
        0.0,
        0.0
      ],
      "type": "VEC2"
    },
    {
      "bufferView": 0,
      "byteOffset": 1554708,
      "componentType": 5125,
      "count": 380151,
      "type": "SCALAR"
    },
    {
      "bufferView": 2,
      "byteOffset": 3296688,
      "componentType": 5126,
      "count": 28001,
      "max": [
        0.03743317350745201,
        0.006046344991773367,
        0.9413691759109497
      ],
      "min": [
        -0.054350510239601135,
        -0.0071319108828902245,
        -0.9362885355949402
      ],
      "type": "VEC3"
    },
    {
      "bufferView": 2,
      "byteOffset": 3632700,
      "componentType": 5126,
      "count": 28001,
      "max": [
        1.0,
        1.0,
        1.0
      ],
      "min": [
        -1.0,
        -1.0,
        -1.0
      ],
      "type": "VEC3"
    },
    {
      "bufferView": 1,
      "byteOffset": 1149280,
      "componentType": 5126,
      "count": 28001,
      "max": [
        0.10000000149011612,
        0.09999990463256836
      ],
      "min": [
        0.0,
        0.0
      ],
      "type": "VEC2"
    },
    {
      "bufferView": 0,
      "byteOffset": 3075312,
      "componentType": 5125,
      "count": 155103,
      "type": "SCALAR"
    },
    {
      "bufferView": 2,
      "byteOffset": 3968712,
      "componentType": 5126,
      "count": 65532,
      "max": [
        0.035360269248485565,
        0.0062165530398488045,
        0.935526967048645
      ],
      "min": [
        -0.05758107826113701,
        -0.007213410921394825,
        -0.9368727207183838
      ],
      "type": "VEC3"
    },
    {
      "bufferView": 2,
      "byteOffset": 4755096,
      "componentType": 5126,
      "count": 65532,
      "max": [
        0.9999873638153076,
        0.9999979734420776,
        0.9999876022338867
      ],
      "min": [
        -0.9999423027038574,
        -0.9999957084655762,
        -0.9999735355377197
      ],
      "type": "VEC3"
    },
    {
      "bufferView": 1,
      "byteOffset": 1373288,
      "componentType": 5126,
      "count": 65532,
      "max": [
        0.10000000149011612,
        0.09999990463256836
      ],
      "min": [
        0.0,
        0.0
      ],
      "type": "VEC2"
    },
    {
      "bufferView": 0,
      "byteOffset": 3695724,
      "componentType": 5125,
      "count": 378633,
      "type": "SCALAR"
    },
    {
      "bufferView": 2,
      "byteOffset": 5541480,
      "componentType": 5126,
      "count": 65532,
      "max": [
        0.03385765105485916,
        0.006951487623155117,
        0.9381188750267029
      ],
      "min": [
        -0.05765784531831741,
        -0.007414072751998901,
        -0.9300782084465027
      ],
      "type": "VEC3"
    },
    {
      "bufferView": 2,
      "byteOffset": 6327864,
      "componentType": 5126,
      "count": 65532,
      "max": [
        0.9999665021896362,
        0.9999990463256836,
        0.9999942779541016
      ],
      "min": [
        -0.9998962879180908,
        -0.9999997615814209,
        -0.9999973773956299
      ],
      "type": "VEC3"
    },
    {
      "bufferView": 1,
      "byteOffset": 1897544,
      "componentType": 5126,
      "count": 65532,
      "max": [
        0.10000000149011612,
        0.09999990463256836
      ],
      "min": [
        0.0,
        0.0
      ],
      "type": "VEC2"
    },
    {
      "bufferView": 0,
      "byteOffset": 5210256,
      "componentType": 5125,
      "count": 380007,
      "type": "SCALAR"
    },
    {
      "bufferView": 2,
      "byteOffset": 7114248,
      "componentType": 5126,
      "count": 28072,
      "max": [
        0.033891335129737854,
        0.006082767620682716,
        0.9361878633499146
      ],
      "min": [
        -0.05770033970475197,
        -0.008001694455742836,
        -0.9363961219787598
      ],
      "type": "VEC3"
    },
    {
      "bufferView": 2,
      "byteOffset": 7451112,
      "componentType": 5126,
      "count": 28072,
      "max": [
        0.9999873638153076,
        0.9999982118606567,
        0.9999532699584961
      ],
      "min": [
        -0.9998611211776733,
        -0.9999984502792358,
        -0.9999947547912598
      ],
      "type": "VEC3"
    },
    {
      "bufferView": 1,
      "byteOffset": 2421800,
      "componentType": 5126,
      "count": 28072,
      "max": [
        0.10000000149011612,
        0.09999990463256836
      ],
      "min": [
        0.0,
        0.0
      ],
      "type": "VEC2"
    },
    {
      "bufferView": 0,
      "byteOffset": 6730284,
      "componentType": 5125,
      "count": 155481,
      "type": "SCALAR"
    }
  ],
  "asset": {
    "extras": {
      "author": "mfb64 (https://sketchfab.com/mfb64)",
      "license": "CC-BY-4.0 (http://creativecommons.org/licenses/by/4.0/)",
      "source": "https://sketchfab.com/3d-models/persian-malayer-runner-carpet-e93557d4dab344a9b4e19dd4579e3707",
      "title": "Persian Malayer Runner Carpet"
    },
    "generator": "Sketchfab-12.65.0",
    "version": "2.0"
  },
  "bufferViews": [
    {
      "buffer": 0,
      "byteLength": 7352208,
      "name": "floatBufferViews",
      "target": 34963
    },
    {
      "buffer": 0,
      "byteLength": 2646376,
      "byteOffset": 7352208,
      "byteStride": 8,
      "name": "floatBufferViews",
      "target": 34962
    },
    {
      "buffer": 0,
      "byteLength": 7787976,
      "byteOffset": 9998584,
      "byteStride": 12,
      "name": "floatBufferViews",
      "target": 34962
    }
  ],
  "buffers": [
    {
      "byteLength": 17786560,
      "uri": "scene.bin"
    }
  ],
  "images": [
    {
      "uri": "textures/carpet_baseColor.jpeg"
    }
  ],
  "materials": [
    {
      "doubleSided": true,
      "name": "carpet",
      "pbrMetallicRoughness": {
        "baseColorTexture": {
          "index": 0
        },
        "metallicFactor": 0.0,
        "roughnessFactor": 0.8
      }
    },
    {
      "doubleSided": true,
      "name": "VELVET-GREEN__Budapest",
      "pbrMetallicRoughness": {
        "baseColorFactor": [
          0.64367,
          0.579806,
          0.381018,
          1.0
        ],
        "metallicFactor": 0.0,
        "roughnessFactor": 0.95
      }
    }
  ],
  "meshes": [
    {
      "name": "Object_0",
      "primitives": [
        {
          "attributes": {
            "NORMAL": 1,
            "POSITION": 0,
            "TEXCOORD_0": 2,
            "TEXCOORD_1": 3
          },
          "indices": 4,
          "material": 0,
          "mode": 4
        }
      ]
    },
    {
      "name": "Object_1",
      "primitives": [
        {
          "attributes": {
            "NORMAL": 6,
            "POSITION": 5,
            "TEXCOORD_0": 7
          },
          "indices": 8,
          "material": 1,
          "mode": 4
        }
      ]
    },
    {
      "name": "Object_2",
      "primitives": [
        {
          "attributes": {
            "NORMAL": 10,
            "POSITION": 9,
            "TEXCOORD_0": 11
          },
          "indices": 12,
          "material": 1,
          "mode": 4
        }
      ]
    },
    {
      "name": "Object_3",
      "primitives": [
        {
          "attributes": {
            "NORMAL": 14,
            "POSITION": 13,
            "TEXCOORD_0": 15
          },
          "indices": 16,
          "material": 1,
          "mode": 4
        }
      ]
    },
    {
      "name": "Object_4",
      "primitives": [
        {
          "attributes": {
            "NORMAL": 18,
            "POSITION": 17,
            "TEXCOORD_0": 19
          },
          "indices": 20,
          "material": 1,
          "mode": 4
        }
      ]
    },
    {
      "name": "Object_5",
      "primitives": [
        {
          "attributes": {
            "NORMAL": 22,
            "POSITION": 21,
            "TEXCOORD_0": 23
          },
          "indices": 24,
          "material": 1,
          "mode": 4
        }
      ]
    },
    {
      "name": "Object_6",
      "primitives": [
        {
          "attributes": {
            "NORMAL": 26,
            "POSITION": 25,
            "TEXCOORD_0": 27
          },
          "indices": 28,
          "material": 1,
          "mode": 4
        }
      ]
    }
  ],
  "nodes": [
    {
      "children": [
        1
      ],
      "matrix": [
        1.0,
        0.0,
        0.0,
        0.0,
        0.0,
        2.220446049250313e-16,
        -1.0,
        0.0,
        0.0,
        1.0,
        2.220446049250313e-16,
        0.0,
        0.0,
        0.0,
        0.0,
        1.0
      ],
      "name": "Sketchfab_model"
    },
    {
      "children": [
        2
      ],
      "name": "root"
    },
    {
      "children": [
        3
      ],
      "matrix": [
        1.0,
        0.0,
        0.0,
        0.0,
        0.0,
        2.220446049250313e-16,
        1.0,
        0.0,
        0.0,
        -1.0,
        2.220446049250313e-16,
        0.0,
        0.0,
        0.0,
        0.0,
        1.0
      ],
      "name": "GLTF_SceneRootNode"
    },
    {
      "children": [
        4,
        5,
        9
      ],
      "name": "Persian Malayer Runner Carpet_2"
    },
    {
      "mesh": 0,
      "name": "Object_4"
    },
    {
      "children": [
        6,
        7,
        8
      ],
      "matrix": [
        0.543010413646698,
        0.0,
        0.0,
        0.0,
        0.0,
        0.543010413646698,
        0.0,
        0.0,
        0.0,
        0.0,
        0.5384035706520081,
        0.0,
        -1.9196163415908813,
        0.0021089198999106884,
        -9.111082181334496e-05,
        1.0
      ],
      "name": "frange1_0"
    },
    {
      "mesh": 1,
      "name": "Object_6"
    },
    {
      "mesh": 2,
      "name": "Object_7"
    },
    {
      "mesh": 3,
      "name": "Object_8"
    },
    {
      "children": [
        10,
        11,
        12
      ],
      "matrix": [
        0.5609328746795654,
        0.0,
        0.0,
        0.0,
        0.0,
        0.5609328746795654,
        0.0,
        0.0,
        0.0,
        0.0,
        0.5609328746795654,
        0.0,
        1.928210973739624,
        0.0016976543702185154,
        -0.004764416255056858,
        1.0
      ],
      "name": "frange2_1"
    },
    {
      "mesh": 4,
      "name": "Object_10"
    },
    {
      "mesh": 5,
      "name": "Object_11"
    },
    {
      "mesh": 6,
      "name": "Object_12"
    }
  ],
  "samplers": [
    {
      "magFilter": 9729,
      "minFilter": 9987,
      "wrapS": 10497,
      "wrapT": 10497
    }
  ],
  "scene": 0,
  "scenes": [
    {
      "name": "Sketchfab_Scene",
      "nodes": [
        0
      ]
    }
  ],
  "textures": [
    {
      "sampler": 0,
      "source": 0
    }
  ]
}
