{
  "accessors": [
    {
      "bufferView": 2,
      "componentType": 5126,
      "count": 6060,
      "max": [
        0.9161085486412048,
        0.005000000353902578,
        0.5886690616607666
      ],
      "min": [
        -0.9135704040527344,
        0.0,
        -0.591565728187561
      ],
      "type": "VEC3"
    },
    {
      "bufferView": 2,
      "byteOffset": 72720,
      "componentType": 5126,
      "count": 6060,
      "max": [
        0.9999969601631165,
        1.0,
        1.0
      ],
      "min": [
        -0.9999971985816956,
        -1.0,
        -1.0
      ],
      "type": "VEC3"
    },
    {
      "bufferView": 1,
      "componentType": 5126,
      "count": 6060,
      "max": [
        0.9858858585357666,
        0.9856464266777039
      ],
      "min": [
        0.014953821897506714,
        0.014972403645515442
      ],
      "type": "VEC2"
    },
    {
      "bufferView": 1,
      "byteOffset": 48480,
      "componentType": 5126,
      "count": 6060,
      "max": [
        0.9858858585357666,
        0.9856464266777039
      ],
      "min": [
        0.014953821897506714,
        0.014972403645515442
      ],
      "type": "VEC2"
    },
    {
      "bufferView": 0,
      "componentType": 5125,
      "count": 9636,
      "type": "SCALAR"
    },
    {
      "bufferView": 2,
      "byteOffset": 145440,
      "componentType": 5126,
      "count": 65532,
      "max": [
        0.02810213342308998,
        0.00362619711086154,
        0.5941547751426697
      ],
      "min": [
        -0.013511894270777702,
        -0.004842091351747513,
        -0.5857401490211487
      ],
      "type": "VEC3"
    },
    {
      "bufferView": 2,
      "byteOffset": 931824,
      "componentType": 5126,
      "count": 65532,
      "max": [
        0.9996172189712524,
        0.9999901056289673,
        1.0
      ],
      "min": [
        -0.9998762607574463,
        -1.0,
        -0.9999337196350098
      ],
      "type": "VEC3"
    },
    {
      "bufferView": 1,
      "byteOffset": 96960,
      "componentType": 5126,
      "count": 65532,
      "max": [
        0.10000000149011612,
        0.09999990463256836
      ],
      "min": [
        0.0,
        0.0
      ],
      "type": "VEC2"
    },
    {
      "bufferView": 0,
      "byteOffset": 38544,
      "componentType": 5125,
      "count": 378753,
      "type": "SCALAR"
    },
    {
      "bufferView": 2,
      "byteOffset": 1718208,
      "componentType": 5126,
      "count": 65532,
      "max": [
        0.028193874284625053,
        0.003908825572580099,
        0.5923463702201843
      ],
      "min": [
        -0.01350228302180767,
        -0.004471160937100649,
        -0.5919336080551147
      ],
      "type": "VEC3"
    },
    {
      "bufferView": 2,
      "byteOffset": 2504592,
      "componentType": 5126,
      "count": 65532,
      "max": [
        0.9999202489852905,
        0.9999839067459106,
        1.0
      ],
      "min": [
        -0.9999487400054932,
        -0.9999914169311523,
        -0.9999914169311523
      ],
      "type": "VEC3"
    },
    {
      "bufferView": 1,
      "byteOffset": 621216,
      "componentType": 5126,
      "count": 65532,
      "max": [
        0.10000000149011612,
        0.09999990463256836
      ],
      "min": [
        0.0,
        0.0
      ],
      "type": "VEC2"
    },
    {
      "bufferView": 0,
      "byteOffset": 1553556,
      "componentType": 5125,
      "count": 380103,
      "type": "SCALAR"
    },
    {
      "bufferView": 2,
      "byteOffset": 3290976,
      "componentType": 5126,
      "count": 28025,
      "max": [
        0.02810213342308998,
        0.0038384702056646347,
        0.5923544764518738
      ],
      "min": [
        -0.013699980452656746,
        -0.004480169154703617,
        -0.5896416902542114
      ],
      "type": "VEC3"
    },
    {
      "bufferView": 2,
      "byteOffset": 3627276,
      "componentType": 5126,
      "count": 28025,
      "max": [
        0.9999794960021973,
        0.9999879598617554,
        0.9999912977218628
      ],
      "min": [
        -0.9998624324798584,
        -0.9999996423721313,
        -0.9999680519104004
      ],
      "type": "VEC3"
    },
    {
      "bufferView": 1,
      "byteOffset": 1145472,
      "componentType": 5126,
      "count": 28025,
      "max": [
        0.10000000149011612,
        0.09999990463256836
      ],
      "min": [
        0.0,
        0.0
      ],
      "type": "VEC2"
    },
    {
      "bufferView": 0,
      "byteOffset": 3073968,
      "componentType": 5125,
      "count": 155187,
      "type": "SCALAR"
    },
    {
      "bufferView": 2,
      "byteOffset": 3963576,
      "componentType": 5126,
      "count": 65532,
      "max": [
        0.012529964558780193,
        0.00394429499283433,
        0.5918437242507935
      ],
      "min": [
        -0.035319436341524124,
        -0.004533232189714909,
        -0.5934748649597168
      ],
      "type": "VEC3"
    },
    {
      "bufferView": 2,
      "byteOffset": 4749960,
      "componentType": 5126,
      "count": 65532,
      "max": [
        0.999930739402771,
        0.9999980926513672,
        0.999948263168335
      ],
      "min": [
        -1.0,
        -1.0,
        -0.9999723434448242
      ],
      "type": "VEC3"
    },
    {
      "bufferView": 1,
      "byteOffset": 1369672,
      "componentType": 5126,
      "count": 65532,
      "max": [
        0.10000000149011612,
        0.09999990463256836
      ],
      "min": [
        0.0,
        0.0
      ],
      "type": "VEC2"
    },
    {
      "bufferView": 0,
      "byteOffset": 3694716,
      "componentType": 5125,
      "count": 378438,
      "type": "SCALAR"
    },
    {
      "bufferView": 2,
      "byteOffset": 5536344,
      "componentType": 5126,
      "count": 65532,
      "max": [
        0.012525450438261032,
        0.004408215172588825,
        0.5958319902420044
      ],
      "min": [
        -0.03552088886499405,
        -0.004659898113459349,
        -0.5891268849372864
      ],
      "type": "VEC3"
    },
    {
      "bufferView": 2,
      "byteOffset": 6322728,
      "componentType": 5126,
      "count": 65532,
      "max": [
        0.999946117401123,
        0.9999979734420776,
        1.0
      ],
      "min": [
        -0.9999237060546875,
        -0.9999949932098389,
        -0.9999806880950928
      ],
      "type": "VEC3"
    },
    {
      "bufferView": 1,
      "byteOffset": 1893928,
      "componentType": 5126,
      "count": 65532,
      "max": [
        0.10000000149011612,
        0.09999990463256836
      ],
      "min": [
        0.0,
        0.0
      ],
      "type": "VEC2"
    },
    {
      "bufferView": 0,
      "byteOffset": 5208468,
      "componentType": 5125,
      "count": 380376,
      "type": "SCALAR"
    },
    {
      "bufferView": 2,
      "byteOffset": 7109112,
      "componentType": 5126,
      "count": 28043,
      "max": [
        0.01314154826104641,
        0.0038598442915827036,
        0.5944229960441589
      ],
      "min": [
        -0.03521108627319336,
        -0.005030828528106213,
        -0.5931898951530457
      ],
      "type": "VEC3"
    },
    {
      "bufferView": 2,
      "byteOffset": 7445628,
      "componentType": 5126,
      "count": 28043,
      "max": [
        0.9998668432235718,
        0.9999947547912598,
        0.9999939203262329
      ],
      "min": [
        -0.999482274055481,
        -0.9999943971633911,
        -0.9999282360076904
      ],
      "type": "VEC3"
    },
    {
      "bufferView": 1,
      "byteOffset": 2418184,
      "componentType": 5126,
      "count": 28043,
      "max": [
        0.10000000149011612,
        0.09999990463256836
      ],
      "min": [
        0.0,
        0.0
      ],
      "type": "VEC2"
    },
    {
      "bufferView": 0,
      "byteOffset": 6729972,
      "componentType": 5125,
      "count": 155307,
      "type": "SCALAR"
    }
  ],
  "asset": {
    "extras": {
      "author": "mfb64 (https://sketchfab.com/mfb64)",
      "license": "CC-BY-4.0 (http://creativecommons.org/licenses/by/4.0/)",
      "source": "https://sketchfab.com/3d-models/persian-malayer-carpet-1120ca810d0c46289d3b7071103067ac",
      "title": "Persian Malayer Carpet"
    },
    "generator": "Sketchfab-12.65.0",
    "version": "2.0"
  },
  "bufferViews": [
    {
      "buffer": 0,
      "byteLength": 7351200,
      "name": "floatBufferViews",
      "target": 34963
    },
    {
      "buffer": 0,
      "byteLength": 2642528,
      "byteOffset": 7351200,
      "byteStride": 8,
      "name": "floatBufferViews",
      "target": 34962
    },
    {
      "buffer": 0,
      "byteLength": 7782144,
      "byteOffset": 9993728,
      "byteStride": 12,
      "name": "floatBufferViews",
      "target": 34962
    }
  ],
  "buffers": [
    {
      "byteLength": 17775872,
      "uri": "scene.bin"
    }
  ],
  "images": [
    {
      "uri": "textures/carpet_baseColor.jpeg"
    }
  ],
  "materials": [
    {
      "doubleSided": true,
      "name": "carpet",
      "pbrMetallicRoughness": {
        "baseColorTexture": {
          "index": 0
        },
        "metallicFactor": 0.0,
        "roughnessFactor": 0.8
      }
    },
    {
      "doubleSided": true,
      "name": "VELVET-GREEN__Budapest",
      "pbrMetallicRoughness": {
        "baseColorFactor": [
          0.395158,
          0.381919,
          0.300837,
          1.0
        ],
        "metallicFactor": 0.0,
        "roughnessFactor": 0.95
      }
    }
  ],
  "meshes": [
    {
      "name": "Object_0",
      "primitives": [
        {
          "attributes": {
            "NORMAL": 1,
            "POSITION": 0,
            "TEXCOORD_0": 2,
            "TEXCOORD_1": 3
          },
          "indices": 4,
          "material": 0,
          "mode": 4
        }
      ]
    },
    {
      "name": "Object_1",
      "primitives": [
        {
          "attributes": {
            "NORMAL": 6,
            "POSITION": 5,
            "TEXCOORD_0": 7
          },
          "indices": 8,
          "material": 1,
          "mode": 4
        }
      ]
    },
    {
      "name": "Object_2",
      "primitives": [
        {
          "attributes": {
            "NORMAL": 10,
            "POSITION": 9,
            "TEXCOORD_0": 11
          },
          "indices": 12,
          "material": 1,
          "mode": 4
        }
      ]
    },
    {
      "name": "Object_3",
      "primitives": [
        {
          "attributes": {
            "NORMAL": 14,
            "POSITION": 13,
            "TEXCOORD_0": 15
          },
          "indices": 16,
          "material": 1,
          "mode": 4
        }
      ]
    },
    {
      "name": "Object_4",
      "primitives": [
        {
          "attributes": {
            "NORMAL": 18,
            "POSITION": 17,
            "TEXCOORD_0": 19
          },
          "indices": 20,
          "material": 1,
          "mode": 4
        }
      ]
    },
    {
      "name": "Object_5",
      "primitives": [
        {
          "attributes": {
            "NORMAL": 22,
            "POSITION": 21,
            "TEXCOORD_0": 23
          },
          "indices": 24,
          "material": 1,
          "mode": 4
        }
      ]
    },
    {
      "name": "Object_6",
      "primitives": [
        {
          "attributes": {
            "NORMAL": 26,
            "POSITION": 25,
            "TEXCOORD_0": 27
          },
          "indices": 28,
          "material": 1,
          "mode": 4
        }
      ]
    }
  ],
  "nodes": [
    {
      "children": [
        1
      ],
      "matrix": [
        1.0,
        0.0,
        0.0,
        0.0,
        0.0,
        2.220446049250313e-16,
        -1.0,
        0.0,
        0.0,
        1.0,
        2.220446049250313e-16,
        0.0,
        0.0,
        0.0,
        0.0,
        1.0
      ],
      "name": "Sketchfab_model"
    },
    {
      "children": [
        2
      ],
      "name": "root"
    },
    {
      "children": [
        3
      ],
      "matrix": [
        1.0,
        0.0,
        0.0,
        0.0,
        0.0,
        2.220446049250313e-16,
        1.0,
        0.0,
        0.0,
        -1.0,
        2.220446049250313e-16,
        0.0,
        0.0,
        0.0,
        0.0,
        1.0
      ],
      "name": "GLTF_SceneRootNode"
    },
    {
      "children": [
        4,
        5,
        9
      ],
      "name": "Persian Malayer Rug_2"
    },
    {
      "mesh": 0,
      "name": "Object_4"
    },
    {
      "children": [
        6,
        7,
        8
      ],
      "matrix": [
        1.0,
        0.0,
        0.0,
        0.0,
        0.0,
        1.0,
        0.0,
        0.0,
        0.0,
        0.0,
        1.0,
        0.0,
        -0.9205772280693054,
        0.0013609017478302121,
        -0.006361279170960188,
        1.0
      ],
      "name": "frange1_0"
    },
    {
      "mesh": 1,
      "name": "Object_6"
    },
    {
      "mesh": 2,
      "name": "Object_7"
    },
    {
      "mesh": 3,
      "name": "Object_8"
    },
    {
      "children": [
        10,
        11,
        12
      ],
      "matrix": [
        1.0,
        0.0,
        0.0,
        0.0,
        0.0,
        1.0,
        0.0,
        0.0,
        0.0,
        0.0,
        1.0,
        0.0,
        0.9284045696258545,
        0.0008844306576065719,
        0.0013134810142219067,
        1.0
      ],
      "name": "frange2_1"
    },
    {
      "mesh": 4,
      "name": "Object_10"
    },
    {
      "mesh": 5,
      "name": "Object_11"
    },
    {
      "mesh": 6,
      "name": "Object_12"
    }
  ],
  "samplers": [
    {
      "magFilter": 9729,
      "minFilter": 9987,
      "wrapS": 10497,
      "wrapT": 10497
    }
  ],
  "scene": 0,
  "scenes": [
    {
      "name": "Sketchfab_Scene",
      "nodes": [
        0
      ]
    }
  ],
  "textures": [
    {
      "sampler": 0,
      "source": 0
    }
  ]
}
