{
  "accessors": [
    {
      "bufferView": 2,
      "componentType": 5126,
      "count": 342,
      "max": [
        0.8960970044136047,
        0.2945469915866852,
        0.5038769841194153
      ],
      "min": [
        -0.7245299816131592,
        -0.29992300271987915,
        -0.4208039939403534
      ],
      "type": "VEC3"
    },
    {
      "bufferView": 2,
      "byteOffset": 4104,
      "componentType": 5126,
      "count": 342,
      "max": [
        0.9995468258857727,
        0.9999517202377319,
        0.9977425336837769
      ],
      "min": [
        -0.9981738328933716,
        -0.9999496936798096,
        -0.9998511075973511
      ],
      "type": "VEC3"
    },
    {
      "bufferView": 3,
      "componentType": 5126,
      "count": 342,
      "max": [
        0.9990406632423401,
        0.9930275082588196,
        0.9520040154457092,
        1.0
      ],
      "min": [
        -0.18625962734222412,
        -0.99994295835495,
        -0.6747893691062927,
        -1.0
      ],
      "type": "VEC4"
    },
    {
      "bufferView": 1,
      "componentType": 5126,
      "count": 342,
      "max": [
        0.7526800036430359,
        0.999763011932373
      ],
      "min": [
        7.999999979801942e-06,
        0.00010599999950500205
      ],
      "type": "VEC2"
    },
    {
      "bufferView": 0,
      "componentType": 5125,
      "count": 1848,
      "type": "SCALAR"
    }
  ],
  "asset": {
    "extras": {
      "author": "Kless Gyzen (https://sketchfab.com/klessgyzen)",
      "license": "CC-BY-4.0 (http://creativecommons.org/licenses/by/4.0/)",
      "source": "https://sketchfab.com/3d-models/old-tape-box-photoscan-pbr-free-download-a8d15991c2184cdc9e4c5a37186b61b7",
      "title": "Old Tape Box Photoscan PBR (Free Download)"
    },
    "generator": "Sketchfab-12.68.0",
    "version": "2.0"
  },
  "bufferViews": [
    {
      "buffer": 0,
      "byteLength": 7392,
      "name": "floatBufferViews",
      "target": 34963
    },
    {
      "buffer": 0,
      "byteLength": 2736,
      "byteOffset": 7392,
      "byteStride": 8,
      "name": "floatBufferViews",
      "target": 34962
    },
    {
      "buffer": 0,
      "byteLength": 8208,
      "byteOffset": 10128,
      "byteStride": 12,
      "name": "floatBufferViews",
      "target": 34962
    },
    {
      "buffer": 0,
      "byteLength": 5472,
      "byteOffset": 18336,
      "byteStride": 16,
      "name": "floatBufferViews",
      "target": 34962
    }
  ],
  "buffers": [
    {
      "byteLength": 23808,
      "uri": "scene.bin"
    }
  ],
  "images": [
    {
      "uri": "textures/tape_box_baseColor.jpeg"
    },
    {
      "uri": "textures/tape_box_metallicRoughness.png"
    },
    {
      "uri": "textures/tape_box_normal.png"
    }
  ],
  "materials": [
    {
      "doubleSided": true,
      "name": "tape_box",
      "normalTexture": {
        "index": 2
      },
      "pbrMetallicRoughness": {
        "baseColorTexture": {
          "index": 0
        },
        "metallicFactor": 0.0,
        "metallicRoughnessTexture": {
          "index": 1
        }
      }
    }
  ],
  "meshes": [
    {
      "name": "Object_0",
      "primitives": [
        {
          "attributes": {
            "NORMAL": 1,
            "POSITION": 0,
            "TANGENT": 2,
            "TEXCOORD_0": 3
          },
          "indices": 4,
          "material": 0,
          "mode": 4
        }
      ]
    }
  ],
  "nodes": [
    {
      "children": [
        1
      ],
      "matrix": [
        -0.9987397193908691,
        -0.050011515617370605,
        0.004225694108754385,
        0.0,
        0.00042794126784428954,
        -0.09267684072256066,
        -0.9956961274147034,
        0.0,
        0.05018790066242218,
        -0.9944394826889038,
        0.09258143603801705,
        0.0,
        0.1693747192621231,
        0.08688314259052277,
        -0.004196437075734119,
        1.0
      ],
      "name": "Sketchfab_model"
    },
    {
      "children": [
        2
      ],
      "name": "tape box.obj.cleaner.materialmerger.gles"
    },
    {
      "mesh": 0,
      "name": "Object_2"
    }
  ],
  "samplers": [
    {
      "magFilter": 9729,
      "minFilter": 9987,
      "wrapS": 10497,
      "wrapT": 10497
    }
  ],
  "scene": 0,
  "scenes": [
    {
      "name": "Sketchfab_Scene",
      "nodes": [
        0
      ]
    }
  ],
  "textures": [
    {
      "sampler": 0,
      "source": 0
    },
    {
      "sampler": 0,
      "source": 1
    },
    {
      "sampler": 0,
      "source": 2
    }
  ]
}
