{
  "accessors": [
    {
      "bufferView": 2,
      "componentType": 5126,
      "count": 17256,
      "max": [
        0.7737272381782532,
        2.029667377471924,
        0.19796496629714966
      ],
      "min": [
        -0.5883244872093201,
        0.1725435107946396,
        0.0876205563545227
      ],
      "type": "VEC3"
    },
    {
      "bufferView": 2,
      "byteOffset": 207072,
      "componentType": 5126,
      "count": 17256,
      "max": [
        0.9999786615371704,
        0.545235276222229,
        0.9999947547912598
      ],
      "min": [
        -0.9999996423721313,
        -0.49559399485588074,
        -0.4302945137023926
      ],
      "type": "VEC3"
    },
    {
      "bufferView": 1,
      "componentType": 5126,
      "count": 17256,
      "max": [
        730.1488037109375,
        31.480712890625
      ],
      "min": [
        -1358.6148681640625,
        -1815.0966796875
      ],
      "type": "VEC2"
    },
    {
      "bufferView": 0,
      "componentType": 5125,
      "count": 102354,
      "type": "SCALAR"
    },
    {
      "bufferView": 2,
      "byteOffset": 414144,
      "componentType": 5126,
      "count": 343,
      "max": [
        0.7342350482940674,
        2.0696682929992676,
        0.1417795717716217
      ],
      "min": [
        -0.5329038500785828,
        2.029646635055542,
        0.14177797734737396
      ],
      "type": "VEC3"
    },
    {
      "bufferView": 2,
      "byteOffset": 418260,
      "componentType": 5126,
      "count": 343,
      "max": [
        0.30050796270370483,
        0.4394635260105133,
        1.0
      ],
      "min": [
        -0.27262967824935913,
        -0.49559399485588074,
        0.8645601272583008
      ],
      "type": "VEC3"
    },
    {
      "bufferView": 1,
      "byteOffset": 138048,
      "componentType": 5126,
      "count": 343,
      "max": [
        319.3363037109375,
        -2483.317626953125
      ],
      "min": [
        -947.802490234375,
        -2523.318603515625
      ],
      "type": "VEC2"
    },
    {
      "bufferView": 0,
      "byteOffset": 409416,
      "componentType": 5125,
      "count": 1530,
      "type": "SCALAR"
    }
  ],
  "asset": {
    "extras": {
      "author": "darkvader1221 (https://sketchfab.com/darkvader1221)",
      "license": "CC-BY-4.0 (http://creativecommons.org/licenses/by/4.0/)",
      "source": "https://sketchfab.com/3d-models/wo-curtain-3b1e2abe618c4aa8922d69a88673a1c2",
      "title": "Wo Curtain"
    },
    "generator": "Sketchfab-14.87.0",
    "version": "2.0"
  },
  "bufferViews": [
    {
      "buffer": 0,
      "byteLength": 415536,
      "name": "floatBufferViews",
      "target": 34963
    },
    {
      "buffer": 0,
      "byteLength": 140792,
      "byteOffset": 415536,
      "byteStride": 8,
      "name": "floatBufferViews",
      "target": 34962
    },
    {
      "buffer": 0,
      "byteLength": 422376,
      "byteOffset": 556328,
      "byteStride": 12,
      "name": "floatBufferViews",
      "target": 34962
    }
  ],
  "buffers": [
    {
      "byteLength": 978704,
      "uri": "scene.bin"
    }
  ],
  "extensionsUsed": [
    "KHR_materials_specular"
  ],
  "materials": [
    {
      "doubleSided": true,
      "extensions": {
        "KHR_materials_specular": {
          "specularColorFactor": [
            1.0,
            1.0,
            1.0
          ],
          "specularFactor": 0.15
        }
      },
      "name": "FABRIC_1_FRONT_2375",
      "pbrMetallicRoughness": {
        "baseColorFactor": [
          0.133209,
          0.133209,
          0.133209,
          1.0
        ],
        "metallicFactor": 0.0,
        "roughnessFactor": 0.5
      }
    },
    {
      "doubleSided": true,
      "extensions": {
        "KHR_materials_specular": {
          "specularColorFactor": [
            1.0,
            1.0,
            1.0
          ],
          "specularFactor": 0.15
        }
      },
      "name": "FABRIC_2_FRONT_2380",
      "pbrMetallicRoughness": {
        "baseColorFactor": [
          0.0,
          0.0,
          0.0,
          1.0
        ],
        "metallicFactor": 0.0,
        "roughnessFactor": 0.5
      }
    }
  ],
  "meshes": [
    {
      "name": "Object_0",
      "primitives": [
        {
          "attributes": {
            "NORMAL": 1,
            "POSITION": 0,
            "TEXCOORD_0": 2
          },
          "indices": 3,
          "material": 0,
          "mode": 4
        }
      ]
    },
    {
      "name": "Object_1",
      "primitives": [
        {
          "attributes": {
            "NORMAL": 5,
            "POSITION": 4,
            "TEXCOORD_0": 6
          },
          "indices": 7,
          "material": 1,
          "mode": 4
        }
      ]
    }
  ],
  "nodes": [
    {
      "children": [
        1
      ],
      "matrix": [
        1.0,
        0.0,
        0.0,
        0.0,
        0.0,
        2.220446049250313e-16,
        -1.0,
        0.0,
        0.0,
        1.0,
        2.220446049250313e-16,
        0.0,
        0.0,
        0.0,
        0.0,
        1.0
      ],
      "name": "Sketchfab_model"
    },
    {
      "children": [
        2
      ],
      "name": "root"
    },
    {
      "children": [
        3
      ],
      "matrix": [
        1.0,
        0.0,
        0.0,
        0.0,
        0.0,
        2.220446049250313e-16,
        1.0,
        0.0,
        0.0,
        -1.0,
        2.220446049250313e-16,
        0.0,
        0.0,
        0.0,
        0.0,
        1.0
      ],
      "name": "GLTF_SceneRootNode"
    },
    {
      "children": [
        4
      ],
      "name": "wo curtain_Scene_Node_0"
    },
    {
      "children": [
        5,
        6
      ],
      "name": "Cloth_1"
    },
    {
      "mesh": 0,
      "name": "Object_5"
    },
    {
      "mesh": 1,
      "name": "Object_6"
    }
  ],
  "scene": 0,
  "scenes": [
    {
      "name": "Sketchfab_Scene",
      "nodes": [
        0
      ]
    }
  ]
}
