{
  "accessors": [
    {
      "bufferView": 2,
      "componentType": 5126,
      "count": 198,
      "max": [
        6.000000476837158,
        16.896934509277344,
        6.0
      ],
      "min": [
        -6.000000476837158,
        0.0,
        -6.0
      ],
      "type": "VEC3"
    },
    {
      "bufferView": 2,
      "byteOffset": 2376,
      "componentType": 5126,
      "count": 198,
      "max": [
        1.0,
        1.0,
        1.0
      ],
      "min": [
        -1.0,
        -1.0,
        -1.0
      ],
      "type": "VEC3"
    },
    {
      "bufferView": 3,
      "componentType": 5126,
      "count": 198,
      "max": [
        1.0,
        0.9998496174812317,
        1.0,
        1.0
      ],
      "min": [
        -1.0,
        -0.9998485445976257,
        -1.0,
        1.0
      ],
      "type": "VEC4"
    },
    {
      "bufferView": 1,
      "componentType": 5126,
      "count": 198,
      "max": [
        0.9943759441375732,
        0.980499804019928
      ],
      "min": [
        0.6280630230903625,
        0.5154487490653992
      ],
      "type": "VEC2"
    },
    {
      "bufferView": 0,
      "componentType": 5125,
      "count": 936,
      "type": "SCALAR"
    },
    {
      "bufferView": 2,
      "byteOffset": 4752,
      "componentType": 5126,
      "count": 198,
      "max": [
        6.000000476837158,
        16.896934509277344,
        6.0
      ],
      "min": [
        -6.000000476837158,
        0.0,
        -6.0
      ],
      "type": "VEC3"
    },
    {
      "bufferView": 2,
      "byteOffset": 7128,
      "componentType": 5126,
      "count": 198,
      "max": [
        1.0,
        1.0,
        1.0
      ],
      "min": [
        -1.0,
        -1.0,
        -1.0
      ],
      "type": "VEC3"
    },
    {
      "bufferView": 3,
      "byteOffset": 3168,
      "componentType": 5126,
      "count": 198,
      "max": [
        1.0,
        0.9998497366905212,
        1.0,
        1.0
      ],
      "min": [
        -1.0,
        -0.9998489022254944,
        -1.0,
        1.0
      ],
      "type": "VEC4"
    },
    {
      "bufferView": 1,
      "byteOffset": 1584,
      "componentType": 5126,
      "count": 198,
      "max": [
        0.9931128025054932,
        0.9813817143440247
      ],
      "min": [
        0.7077014446258545,
        0.5150513052940369
      ],
      "type": "VEC2"
    },
    {
      "bufferView": 0,
      "byteOffset": 3744,
      "componentType": 5125,
      "count": 936,
      "type": "SCALAR"
    },
    {
      "bufferView": 2,
      "byteOffset": 9504,
      "componentType": 5126,
      "count": 198,
      "max": [
        6.000000476837158,
        16.896934509277344,
        6.0
      ],
      "min": [
        -6.000000476837158,
        0.0,
        -6.0
      ],
      "type": "VEC3"
    },
    {
      "bufferView": 2,
      "byteOffset": 11880,
      "componentType": 5126,
      "count": 198,
      "max": [
        1.0,
        1.0,
        1.0
      ],
      "min": [
        -1.0,
        -1.0,
        -1.0
      ],
      "type": "VEC3"
    },
    {
      "bufferView": 3,
      "byteOffset": 6336,
      "componentType": 5126,
      "count": 198,
      "max": [
        1.0,
        0.9998491406440735,
        1.0,
        1.0
      ],
      "min": [
        -1.0,
        -0.999847948551178,
        -1.0,
        1.0
      ],
      "type": "VEC4"
    },
    {
      "bufferView": 1,
      "byteOffset": 3168,
      "componentType": 5126,
      "count": 198,
      "max": [
        0.9958653450012207,
        0.9787902235984802
      ],
      "min": [
        0.7846848368644714,
        0.5156357288360596
      ],
      "type": "VEC2"
    },
    {
      "bufferView": 0,
      "byteOffset": 7488,
      "componentType": 5125,
      "count": 936,
      "type": "SCALAR"
    },
    {
      "bufferView": 2,
      "byteOffset": 14256,
      "componentType": 5126,
      "count": 237,
      "max": [
        7.556591033935547,
        5.937220573425293,
        7.6106719970703125
      ],
      "min": [
        -6.000000476837158,
        0.0,
        -6.0
      ],
      "type": "VEC3"
    },
    {
      "bufferView": 2,
      "byteOffset": 17100,
      "componentType": 5126,
      "count": 237,
      "max": [
        1.0,
        1.0,
        1.0
      ],
      "min": [
        -1.0,
        -1.0,
        -1.0
      ],
      "type": "VEC3"
    },
    {
      "bufferView": 3,
      "byteOffset": 9504,
      "componentType": 5126,
      "count": 237,
      "max": [
        0.9999328851699829,
        0.9998496174812317,
        1.0,
        1.0
      ],
      "min": [
        -0.9999328851699829,
        -0.9998485445976257,
        -1.0,
        1.0
      ],
      "type": "VEC4"
    },
    {
      "bufferView": 1,
      "byteOffset": 4752,
      "componentType": 5126,
      "count": 237,
      "max": [
        0.9943759441375732,
        0.980499804019928
      ],
      "min": [
        0.6280630230903625,
        0.5154487490653992
      ],
      "type": "VEC2"
    },
    {
      "bufferView": 0,
      "byteOffset": 11232,
      "componentType": 5125,
      "count": 1152,
      "type": "SCALAR"
    },
    {
      "bufferView": 2,
      "byteOffset": 19944,
      "componentType": 5126,
      "count": 237,
      "max": [
        6.116655349731445,
        15.687240600585938,
        6.0
      ],
      "min": [
        -7.10310173034668,
        0.0,
        -6.0
      ],
      "type": "VEC3"
    },
    {
      "bufferView": 2,
      "byteOffset": 22788,
      "componentType": 5126,
      "count": 237,
      "max": [
        0.9991152882575989,
        0.9759464263916016,
        1.0
      ],
      "min": [
        -0.9980559945106506,
        -1.0,
        -1.0
      ],
      "type": "VEC3"
    },
    {
      "bufferView": 3,
      "byteOffset": 13296,
      "componentType": 5126,
      "count": 237,
      "max": [
        0.9999035000801086,
        0.9748218655586243,
        1.0,
        1.0
      ],
      "min": [
        -0.9991865754127502,
        -0.9392417669296265,
        -1.0,
        1.0
      ],
      "type": "VEC4"
    },
    {
      "bufferView": 1,
      "byteOffset": 6648,
      "componentType": 5126,
      "count": 237,
      "max": [
        0.9931128025054932,
        0.9813816547393799
      ],
      "min": [
        0.7077014446258545,
        0.5150513052940369
      ],
      "type": "VEC2"
    },
    {
      "bufferView": 0,
      "byteOffset": 15840,
      "componentType": 5125,
      "count": 1152,
      "type": "SCALAR"
    },
    {
      "bufferView": 2,
      "byteOffset": 25632,
      "componentType": 5126,
      "count": 237,
      "max": [
        6.428520202636719,
        8.943976402282715,
        6.469108581542969
      ],
      "min": [
        -6.925022125244141,
        0.0,
        -6.0
      ],
      "type": "VEC3"
    },
    {
      "bufferView": 2,
      "byteOffset": 28476,
      "componentType": 5126,
      "count": 237,
      "max": [
        0.9904686212539673,
        0.999442994594574,
        0.9980992674827576
      ],
      "min": [
        -0.9904686212539673,
        -1.0,
        -0.9980990886688232
      ],
      "type": "VEC3"
    },
    {
      "bufferView": 3,
      "byteOffset": 17088,
      "componentType": 5126,
      "count": 237,
      "max": [
        0.9999034404754639,
        0.992106020450592,
        0.9997197985649109,
        1.0
      ],
      "min": [
        -0.9991865754127502,
        -0.9908456206321716,
        -0.9993153810501099,
        1.0
      ],
      "type": "VEC4"
    },
    {
      "bufferView": 1,
      "byteOffset": 8544,
      "componentType": 5126,
      "count": 237,
      "max": [
        0.9958653450012207,
        0.9787902235984802
      ],
      "min": [
        0.7846848368644714,
        0.5156357288360596
      ],
      "type": "VEC2"
    },
    {
      "bufferView": 0,
      "byteOffset": 20448,
      "componentType": 5125,
      "count": 1152,
      "type": "SCALAR"
    }
  ],
  "asset": {
    "extras": {
      "author": "Mysticbobo (https://sketchfab.com/Mysticbobo)",
      "license": "CC-BY-ND-4.0 (http://creativecommons.org/licenses/by-nd/4.0/)",
      "source": "https://sketchfab.com/3d-models/overgrown-train-station-clutter-cans-c6f90e3c56f34b8db742509570d787f7",
      "title": "Overgrown Train Station Clutter - Cans"
    },
    "generator": "Sketchfab-12.66.0",
    "version": "2.0"
  },
  "bufferViews": [
    {
      "buffer": 0,
      "byteLength": 25056,
      "name": "floatBufferViews",
      "target": 34963
    },
    {
      "buffer": 0,
      "byteLength": 10440,
      "byteOffset": 25056,
      "byteStride": 8,
      "name": "floatBufferViews",
      "target": 34962
    },
    {
      "buffer": 0,
      "byteLength": 31320,
      "byteOffset": 35496,
      "byteStride": 12,
      "name": "floatBufferViews",
      "target": 34962
    },
    {
      "buffer": 0,
      "byteLength": 20880,
      "byteOffset": 66816,
      "byteStride": 16,
      "name": "floatBufferViews",
      "target": 34962
    }
  ],
  "buffers": [
    {
      "byteLength": 87696,
      "uri": "scene.bin"
    }
  ],
  "images": [
    {
      "uri": "textures/aiStandardSurface1_baseColor.png"
    },
    {
      "uri": "textures/aiStandardSurface1_metallicRoughness.png"
    },
    {
      "uri": "textures/aiStandardSurface1_normal.png"
    }
  ],
  "materials": [
    {
      "doubleSided": true,
      "name": "aiStandardSurface1",
      "normalTexture": {
        "index": 2
      },
      "pbrMetallicRoughness": {
        "baseColorTexture": {
          "index": 0
        },
        "metallicRoughnessTexture": {
          "index": 1
        }
      }
    }
  ],
  "meshes": [
    {
      "name": "Can_1_aiStandardSurface1_0",
      "primitives": [
        {
          "attributes": {
            "NORMAL": 1,
            "POSITION": 0,
            "TANGENT": 2,
            "TEXCOORD_0": 3
          },
          "indices": 4,
          "material": 0,
          "mode": 4
        }
      ]
    },
    {
      "name": "Can_2_aiStandardSurface1_0",
      "primitives": [
        {
          "attributes": {
            "NORMAL": 6,
            "POSITION": 5,
            "TANGENT": 7,
            "TEXCOORD_0": 8
          },
          "indices": 9,
          "material": 0,
          "mode": 4
        }
      ]
    },
    {
      "name": "Can_3_aiStandardSurface1_0",
      "primitives": [
        {
          "attributes": {
            "NORMAL": 11,
            "POSITION": 10,
            "TANGENT": 12,
            "TEXCOORD_0": 13
          },
          "indices": 14,
          "material": 0,
          "mode": 4
        }
      ]
    },
    {
      "name": "Can_4_aiStandardSurface1_0",
      "primitives": [
        {
          "attributes": {
            "NORMAL": 16,
            "POSITION": 15,
            "TANGENT": 17,
            "TEXCOORD_0": 18
          },
          "indices": 19,
          "material": 0,
          "mode": 4
        }
      ]
    },
    {
      "name": "Can_5_aiStandardSurface1_0",
      "primitives": [
        {
          "attributes": {
            "NORMAL": 21,
            "POSITION": 20,
            "TANGENT": 22,
            "TEXCOORD_0": 23
          },
          "indices": 24,
          "material": 0,
          "mode": 4
        }
      ]
    },
    {
      "name": "Can_6_aiStandardSurface1_0",
      "primitives": [
        {
          "attributes": {
            "NORMAL": 26,
            "POSITION": 25,
            "TANGENT": 27,
            "TEXCOORD_0": 28
          },
          "indices": 29,
          "material": 0,
          "mode": 4
        }
      ]
    }
  ],
  "nodes": [
    {
      "children": [
        1
      ],
      "matrix": [
        1.0,
        0.0,
        0.0,
        0.0,
        0.0,
        2.220446049250313e-16,
        -1.0,
        0.0,
        0.0,
        1.0,
        2.220446049250313e-16,
        0.0,
        0.0,
        0.0,
        0.0,
        1.0
      ],
      "name": "Sketchfab_model"
    },
    {
      "children": [
        2
      ],
      "matrix": [
        0.009999999776482582,
        0.0,
        0.0,
        0.0,
        0.0,
        0.0,
        0.009999999776482582,
        0.0,
        0.0,
        -0.009999999776482582,
        0.0,
        0.0,
        0.0,
        0.0,
        0.0,
        1.0
      ],
      "name": "337907a937f647b3b9c4fe8f9af142d5.fbx"
    },
    {
      "children": [
        3
      ],
      "name": "RootNode"
    },
    {
      "children": [
        4
      ],
      "name": "Clutter2"
    },
    {
      "children": [
        5,
        7,
        9,
        11,
        13,
        15
      ],
      "name": "Cans"
    },
    {
      "children": [
        6
      ],
      "matrix": [
        1.0,
        0.0,
        0.0,
        0.0,
        0.0,
        1.0,
        0.0,
        0.0,
        0.0,
        0.0,
        1.0,
        0.0,
        0.0,
        0.0,
        -17.55665397644043,
        1.0
      ],
      "name": "Can_1"
    },
    {
      "mesh": 0,
      "name": "Can_1_aiStandardSurface1_0"
    },
    {
      "children": [
        8
      ],
      "matrix": [
        1.0,
        0.0,
        0.0,
        0.0,
        0.0,
        1.0,
        0.0,
        0.0,
        0.0,
        0.0,
        1.0,
        0.0,
        35.60527038574219,
        0.0,
        0.0,
        1.0
      ],
      "name": "Can_2"
    },
    {
      "mesh": 1,
      "name": "Can_2_aiStandardSurface1_0"
    },
    {
      "children": [
        10
      ],
      "matrix": [
        1.0,
        0.0,
        0.0,
        0.0,
        0.0,
        1.0,
        0.0,
        0.0,
        0.0,
        0.0,
        1.0,
        0.0,
        68.12610626220703,
        0.0,
        17.651853561401367,
        1.0
      ],
      "name": "Can_3"
    },
    {
      "mesh": 2,
      "name": "Can_3_aiStandardSurface1_0"
    },
    {
      "children": [
        12
      ],
      "matrix": [
        1.0,
        0.0,
        0.0,
        0.0,
        0.0,
        1.0,
        0.0,
        0.0,
        0.0,
        0.0,
        1.0,
        0.0,
        -17.638118743896484,
        0.0,
        -16.35484504699707,
        1.0
      ],
      "name": "Can_4"
    },
    {
      "mesh": 3,
      "name": "Can_4_aiStandardSurface1_0"
    },
    {
      "children": [
        14
      ],
      "matrix": [
        1.0,
        0.0,
        0.0,
        0.0,
        0.0,
        1.0,
        0.0,
        0.0,
        0.0,
        0.0,
        1.0,
        0.0,
        17.24527931213379,
        0.0,
        0.0,
        1.0
      ],
      "name": "Can_5"
    },
    {
      "mesh": 4,
      "name": "Can_5_aiStandardSurface1_0"
    },
    {
      "children": [
        16
      ],
      "matrix": [
        1.0,
        0.0,
        0.0,
        0.0,
        0.0,
        1.0,
        0.0,
        0.0,
        0.0,
        0.0,
        1.0,
        0.0,
        49.186466217041016,
        0.0,
        17.620311737060547,
        1.0
      ],
      "name": "Can_6"
    },
    {
      "mesh": 5,
      "name": "Can_6_aiStandardSurface1_0"
    }
  ],
  "samplers": [
    {
      "magFilter": 9729,
      "minFilter": 9987,
      "wrapS": 10497,
      "wrapT": 10497
    }
  ],
  "scene": 0,
  "scenes": [
    {
      "name": "Sketchfab_Scene",
      "nodes": [
        0
      ]
    }
  ],
  "textures": [
    {
      "sampler": 0,
      "source": 0
    },
    {
      "sampler": 0,
      "source": 1
    },
    {
      "sampler": 0,
      "source": 2
    }
  ]
}
