{
	"asset":{
		"generator":"Khronos glTF Blender I/O v4.0.44",
		"version":"2.0"
	},
	"scene":0,
	"scenes":[
		{
			"name":"Scene",
			"nodes":[
				8
			]
		}
	],
	"nodes":[
		{
			"mesh":0,
			"name":"Can_1_aiStandardSurface1_0",
			"translation":[
				0.06060606241226196,
				10.325970649719238,
				-0.10497093200683594
			]
		},
		{
			"children":[
				0
			],
			"name":"Can_1",
			"translation":[
				0,
				0,
				-17.556652069091797
			]
		},
		{
			"mesh":1,
			"name":"Can_2_aiStandardSurface1_0",
			"translation":[
				0.060604095458984375,
				10.325970649719238,
				-0.10497275739908218
			]
		},
		{
			"children":[
				2
			],
			"name":"Can_2",
			"translation":[
				35.60527038574219,
				0,
				0
			]
		},
		{
			"children":[
				1,
				3
			],
			"name":"Cans"
		},
		{
			"children":[
				4
			],
			"name":"Clutter2"
		},
		{
			"children":[
				5
			],
			"name":"RootNode"
		},
		{
			"children":[
				6
			],
			"name":"337907a937f647b3b9c4fe8f9af142d5.fbx",
			"rotation":[
				0.70710688829422,
				0,
				0,
				0.7071066498756409
			],
			"scale":[
				0.009999999776482582,
				0.010000000707805157,
				0.010000000707805157
			]
		},
		{
			"children":[
				7
			],
			"name":"Sketchfab_model",
			"rotation":[
				-0.70710688829422,
				0,
				0,
				0.7071066498756409
			]
		}
	],
	"materials":[
		{
			"doubleSided":true,
			"name":"aiStandardSurface1",
			"normalTexture":{
				"index":0
			},
			"pbrMetallicRoughness":{
				"baseColorTexture":{
					"index":1
				},
				"metallicRoughnessTexture":{
					"index":2
				}
			}
		}
	],
	"meshes":[
		{
			"name":"Can_1_aiStandardSurface1_0",
			"primitives":[
				{
					"attributes":{
						"POSITION":0,
						"NORMAL":1,
						"TEXCOORD_0":2
					},
					"indices":3,
					"material":0
				}
			]
		},
		{
			"name":"Can_2_aiStandardSurface1_0",
			"primitives":[
				{
					"attributes":{
						"POSITION":4,
						"NORMAL":5,
						"TEXCOORD_0":6
					},
					"indices":3,
					"material":0
				}
			]
		}
	],
	"textures":[
		{
			"sampler":0,
			"source":0
		},
		{
			"sampler":0,
			"source":1
		},
		{
			"sampler":0,
			"source":2
		}
	],
	"images":[
		{
			"mimeType":"image/png",
			"name":"aiStandardSurface1_normal.png",
			"uri":"textures/aiStandardSurface1_normal.png"
		},
		{
			"mimeType":"image/png",
			"name":"aiStandardSurface1_baseColor.png",
			"uri":"textures/aiStandardSurface1_baseColor.png"
		},
		{
			"mimeType":"image/png",
			"name":"aiStandardSurface1_metallicRoughness.png",
			"uri":"textures/aiStandardSurface1_metallicRoughness.png"
		}
	],
	"accessors":[
		{
			"bufferView":0,
			"componentType":5126,
			"count":198,
			"max":[
				5.939394474029541,
				6.570962905883789,
				6.104972839355469
			],
			"min":[
				-6.060606479644775,
				-10.325971603393555,
				-5.895027160644531
			],
			"type":"VEC3"
		},
		{
			"bufferView":1,
			"componentType":5126,
			"count":198,
			"type":"VEC3"
		},
		{
			"bufferView":2,
			"componentType":5126,
			"count":198,
			"type":"VEC2"
		},
		{
			"bufferView":3,
			"componentType":5123,
			"count":936,
			"type":"SCALAR"
		},
		{
			"bufferView":4,
			"componentType":5126,
			"count":198,
			"max":[
				5.939394474029541,
				6.570962905883789,
				6.104972839355469
			],
			"min":[
				-6.060606479644775,
				-10.325971603393555,
				-5.895027160644531
			],
			"type":"VEC3"
		},
		{
			"bufferView":5,
			"componentType":5126,
			"count":198,
			"type":"VEC3"
		},
		{
			"bufferView":6,
			"componentType":5126,
			"count":198,
			"type":"VEC2"
		}
	],
	"bufferViews":[
		{
			"buffer":0,
			"byteLength":2376,
			"byteOffset":0,
			"target":34962
		},
		{
			"buffer":0,
			"byteLength":2376,
			"byteOffset":2376,
			"target":34962
		},
		{
			"buffer":0,
			"byteLength":1584,
			"byteOffset":4752,
			"target":34962
		},
		{
			"buffer":0,
			"byteLength":1872,
			"byteOffset":6336,
			"target":34963
		},
		{
			"buffer":0,
			"byteLength":2376,
			"byteOffset":8208,
			"target":34962
		},
		{
			"buffer":0,
			"byteLength":2376,
			"byteOffset":10584,
			"target":34962
		},
		{
			"buffer":0,
			"byteLength":1584,
			"byteOffset":12960,
			"target":34962
		}
	],
	"samplers":[
		{
			"magFilter":9729,
			"minFilter":9987
		}
	],
	"buffers":[
		{
			"byteLength":14544,
			"uri":"untitled.bin"
		}
	]
}
