{
  "accessors": [
    {
      "bufferView": 2,
      "componentType": 5126,
      "count": 1590,
      "max": [
        14.355947494506836,
        2.159013271331787,
        11.226009368896484
      ],
      "min": [
        -14.355947494506836,
        0.4218847155570984,
        -11.30968189239502
      ],
      "type": "VEC3"
    },
    {
      "bufferView": 2,
      "byteOffset": 19080,
      "componentType": 5126,
      "count": 1590,
      "max": [
        1.0,
        1.0,
        0.9999999403953552
      ],
      "min": [
        -1.0,
        -1.0,
        -1.0
      ],
      "type": "VEC3"
    },
    {
      "bufferView": 1,
      "componentType": 5126,
      "count": 1590,
      "max": [
        0.898962140083313,
        0.9396224617958069
      ],
      "min": [
        0.04381270706653595,
        0.051552385091781616
      ],
      "type": "VEC2"
    },
    {
      "bufferView": 1,
      "byteOffset": 12720,
      "componentType": 5126,
      "count": 1590,
      "max": [
        0.898962140083313,
        0.9396224617958069
      ],
      "min": [
        0.04381270706653595,
        0.051552385091781616
      ],
      "type": "VEC2"
    },
    {
      "bufferView": 0,
      "componentType": 5125,
      "count": 8904,
      "type": "SCALAR"
    }
  ],
  "asset": {
    "extras": {
      "author": "abdillaamy (https://sketchfab.com/abdillaamy)",
      "license": "CC-BY-4.0 (http://creativecommons.org/licenses/by/4.0/)",
      "source": "https://sketchfab.com/3d-models/open-magazine-01a548cb6fc341c98a99375755cf6ce3",
      "title": "Open Magazine"
    },
    "generator": "Sketchfab-12.66.0",
    "version": "2.0"
  },
  "bufferViews": [
    {
      "buffer": 0,
      "byteLength": 35616,
      "name": "floatBufferViews",
      "target": 34963
    },
    {
      "buffer": 0,
      "byteLength": 25440,
      "byteOffset": 35616,
      "byteStride": 8,
      "name": "floatBufferViews",
      "target": 34962
    },
    {
      "buffer": 0,
      "byteLength": 38160,
      "byteOffset": 61056,
      "byteStride": 12,
      "name": "floatBufferViews",
      "target": 34962
    }
  ],
  "buffers": [
    {
      "byteLength": 99216,
      "uri": "scene.bin"
    }
  ],
  "images": [
    {
      "uri": "textures/MagTexture_baseColor.jpeg"
    }
  ],
  "materials": [
    {
      "doubleSided": true,
      "name": "MagTexture",
      "pbrMetallicRoughness": {
        "baseColorTexture": {
          "index": 0
        },
        "metallicFactor": 0.0,
        "roughnessFactor": 0.5958460366
      }
    }
  ],
  "meshes": [
    {
      "name": "OpenMagazine_MagTexture_0",
      "primitives": [
        {
          "attributes": {
            "NORMAL": 1,
            "POSITION": 0,
            "TEXCOORD_0": 2,
            "TEXCOORD_1": 3
          },
          "indices": 4,
          "material": 0,
          "mode": 4
        }
      ]
    }
  ],
  "nodes": [
    {
      "children": [
        1
      ],
      "matrix": [
        1.0,
        0.0,
        0.0,
        0.0,
        0.0,
        2.220446049250313e-16,
        -1.0,
        0.0,
        0.0,
        1.0,
        2.220446049250313e-16,
        0.0,
        0.0,
        0.0,
        0.0,
        1.0
      ],
      "name": "Sketchfab_model"
    },
    {
      "children": [
        2
      ],
      "matrix": [
        1.0,
        0.0,
        0.0,
        0.0,
        0.0,
        0.0,
        1.0,
        0.0,
        0.0,
        -1.0,
        0.0,
        0.0,
        0.0,
        0.0,
        0.0,
        1.0
      ],
      "name": "c0b005d23f3d46c69b8968ebace8424f.fbx"
    },
    {
      "children": [
        3
      ],
      "name": "RootNode"
    },
    {
      "children": [
        4
      ],
      "name": "OpenMagazine"
    },
    {
      "mesh": 0,
      "name": "OpenMagazine_MagTexture_0"
    }
  ],
  "samplers": [
    {
      "magFilter": 9729,
      "minFilter": 9987,
      "wrapS": 10497,
      "wrapT": 10497
    }
  ],
  "scene": 0,
  "scenes": [
    {
      "name": "Sketchfab_Scene",
      "nodes": [
        0
      ]
    }
  ],
  "textures": [
    {
      "sampler": 0,
      "source": 0
    }
  ]
}
