{
  "accessors": [
    {
      "bufferView": 2,
      "componentType": 5126,
      "count": 65532,
      "max": [
        2.781877040863037,
        6.414714813232422,
        -1.5464080572128296
      ],
      "min": [
        1.8831419944763184,
        5.09963321685791,
        -1.9718890190124512
      ],
      "type": "VEC3"
    },
    {
      "bufferView": 2,
      "byteOffset": 786384,
      "componentType": 5126,
      "count": 65532,
      "max": [
        0.9999808669090271,
        0.9998953938484192,
        0.9999643564224243
      ],
      "min": [
        -0.9993358254432678,
        -0.9997085332870483,
        -0.9999820590019226
      ],
      "type": "VEC3"
    },
    {
      "bufferView": 1,
      "componentType": 5126,
      "count": 65532,
      "max": [
        1.0,
        1.0
      ],
      "min": [
        0.0,
        -0.0020230000372976065
      ],
      "type": "VEC2"
    },
    {
      "bufferView": 0,
      "componentType": 5125,
      "count": 287565,
      "type": "SCALAR"
    },
    {
      "bufferView": 2,
      "byteOffset": 1572768,
      "componentType": 5126,
      "count": 65532,
      "max": [
        2.82374906539917,
        6.383945941925049,
        -1.6427340507507324
      ],
      "min": [
        2.004638910293579,
        5.2811808586120605,
        -1.926669955253601
      ],
      "type": "VEC3"
    },
    {
      "bufferView": 2,
      "byteOffset": 2359152,
      "componentType": 5126,
      "count": 65532,
      "max": [
        0.9999765157699585,
        0.999981164932251,
        0.9999646544456482
      ],
      "min": [
        -0.9998742938041687,
        -0.9999939799308777,
        -0.9996873736381531
      ],
      "type": "VEC3"
    },
    {
      "bufferView": 1,
      "byteOffset": 524256,
      "componentType": 5126,
      "count": 65532,
      "max": [
        1.0,
        1.0
      ],
      "min": [
        0.0,
        -0.0020230000372976065
      ],
      "type": "VEC2"
    },
    {
      "bufferView": 0,
      "byteOffset": 1150260,
      "componentType": 5125,
      "count": 204426,
      "type": "SCALAR"
    },
    {
      "bufferView": 2,
      "byteOffset": 3145536,
      "componentType": 5126,
      "count": 58785,
      "max": [
        2.7761709690093994,
        6.426577091217041,
        -1.5855079889297485
      ],
      "min": [
        1.9942950010299683,
        5.2320780754089355,
        -1.9819120168685913
      ],
      "type": "VEC3"
    },
    {
      "bufferView": 2,
      "byteOffset": 3850956,
      "componentType": 5126,
      "count": 58785,
      "max": [
        0.9999422430992126,
        0.999983012676239,
        0.9998874068260193
      ],
      "min": [
        -0.9999748468399048,
        -0.9999696016311646,
        -0.999976396560669
      ],
      "type": "VEC3"
    },
    {
      "bufferView": 1,
      "byteOffset": 1048512,
      "componentType": 5126,
      "count": 58785,
      "max": [
        1.0,
        1.0
      ],
      "min": [
        0.0,
        -0.0020230000372976065
      ],
      "type": "VEC2"
    },
    {
      "bufferView": 0,
      "byteOffset": 1967964,
      "componentType": 5125,
      "count": 181509,
      "type": "SCALAR"
    }
  ],
  "asset": {
    "extras": {
      "author": "aksinia0987 (https://sketchfab.com/aksinia0987)",
      "license": "CC-BY-4.0 (http://creativecommons.org/licenses/by/4.0/)",
      "source": "https://sketchfab.com/3d-models/arm-robot-a2ba6d10bc394d1db1536c0717361ff7",
      "title": "arm robot"
    },
    "generator": "Sketchfab-12.67.0",
    "version": "2.0"
  },
  "bufferViews": [
    {
      "buffer": 0,
      "byteLength": 2694000,
      "name": "floatBufferViews",
      "target": 34963
    },
    {
      "buffer": 0,
      "byteLength": 1518792,
      "byteOffset": 2694000,
      "byteStride": 8,
      "name": "floatBufferViews",
      "target": 34962
    },
    {
      "buffer": 0,
      "byteLength": 4556376,
      "byteOffset": 4212792,
      "byteStride": 12,
      "name": "floatBufferViews",
      "target": 34962
    }
  ],
  "buffers": [
    {
      "byteLength": 8769168,
      "uri": "scene.bin"
    }
  ],
  "materials": [
    {
      "doubleSided": true,
      "name": "blinn1",
      "pbrMetallicRoughness": {
        "baseColorFactor": [
          0.3636653735842167,
          0.3636653735842167,
          0.3636653735842167,
          1.0
        ],
        "roughnessFactor": 0.36652043850208854
      }
    }
  ],
  "meshes": [
    {
      "name": "polySurface13_blinn1_0",
      "primitives": [
        {
          "attributes": {
            "NORMAL": 1,
            "POSITION": 0,
            "TEXCOORD_0": 2
          },
          "indices": 3,
          "material": 0,
          "mode": 4
        }
      ]
    },
    {
      "name": "polySurface13_blinn1_0",
      "primitives": [
        {
          "attributes": {
            "NORMAL": 5,
            "POSITION": 4,
            "TEXCOORD_0": 6
          },
          "indices": 7,
          "material": 0,
          "mode": 4
        }
      ]
    },
    {
      "name": "polySurface13_blinn1_0",
      "primitives": [
        {
          "attributes": {
            "NORMAL": 9,
            "POSITION": 8,
            "TEXCOORD_0": 10
          },
          "indices": 11,
          "material": 0,
          "mode": 4
        }
      ]
    }
  ],
  "nodes": [
    {
      "children": [
        1
      ],
      "matrix": [
        1.0,
        0.0,
        0.0,
        0.0,
        0.0,
        2.220446049250313e-16,
        -1.0,
        0.0,
        0.0,
        1.0,
        2.220446049250313e-16,
        0.0,
        0.0,
        0.0,
        0.0,
        1.0
      ],
      "name": "Sketchfab_model"
    },
    {
      "children": [
        2
      ],
      "matrix": [
        1.0,
        0.0,
        0.0,
        0.0,
        0.0,
        0.0,
        1.0,
        0.0,
        0.0,
        -1.0,
        0.0,
        0.0,
        0.0,
        0.0,
        0.0,
        1.0
      ],
      "name": "927884a522db433285a5f9fa18849351.fbx"
    },
    {
      "children": [
        3
      ],
      "name": "RootNode"
    },
    {
      "children": [
        4,
        5,
        6
      ],
      "matrix": [
        0.19666115121135785,
        -0.9800373029808903,
        -0.029176640830739453,
        0.0,
        0.9804637484511868,
        0.19669094364773776,
        0.001873675535010227,
        0.0,
        0.003902509099476559,
        -0.028975117823832414,
        0.9995725151132475,
        0.0,
        -3.753016710281372,
        6.884902000427246,
        0.057113293558359146,
        1.0
      ],
      "name": "polySurface13"
    },
    {
      "mesh": 0,
      "name": "polySurface13_blinn1_0"
    },
    {
      "mesh": 1,
      "name": "polySurface13_blinn1_0"
    },
    {
      "mesh": 2,
      "name": "polySurface13_blinn1_0"
    }
  ],
  "scene": 0,
  "scenes": [
    {
      "name": "Sketchfab_Scene",
      "nodes": [
        0
      ]
    }
  ]
}
