{
	"asset":{
		"generator":"Khronos glTF Blender I/O v4.0.44",
		"version":"2.0"
	},
	"scene":0,
	"scenes":[
		{
			"name":"Scene",
			"nodes":[
				4
			]
		}
	],
	"nodes":[
		{
			"mesh":0,
			"name":"Stereo textured mesh_Material0_0",
			"translation":[
				-135.54296875,
				14181.205078125,
				-28608.541015625
			]
		},
		{
			"children":[
				0
			],
			"name":"Stereo textured mesh",
			"translation":[
				0,
				-0.001953125,
				0.001953125
			]
		},
		{
			"children":[
				1
			],
			"name":"RootNode",
			"translation":[
				0,
				-0.001953125,
				0.001953125
			]
		},
		{
			"children":[
				2
			],
			"name":"sketchfabTemp.obj.fbx",
			"rotation":[
				-1,
				0,
				0,
				1.3234889800848443e-23
			],
			"translation":[
				0,
				0.001953125,
				-0.001953125
			]
		},
		{
			"children":[
				3
			],
			"name":"Sketchfab_model",
			"rotation":[
				-1,
				0,
				0,
				2.220445784552517e-16
			],
			"scale":[
				0.0016889014514163136,
				0.0016889014514163136,
				0.0016889014514163136
			],
			"translation":[
				0,
				-24.18805694580078,
				48.187400817871094
			]
		}
	],
	"materials":[
		{
			"doubleSided":true,
			"name":"Material0",
			"pbrMetallicRoughness":{
				"baseColorTexture":{
					"index":0
				},
				"metallicFactor":0,
				"roughnessFactor":0.5
			}
		}
	],
	"meshes":[
		{
			"name":"Stereo textured mesh_Material0_0",
			"primitives":[
				{
					"attributes":{
						"POSITION":0,
						"NORMAL":1,
						"TEXCOORD_0":2
					},
					"indices":3,
					"material":0
				}
			]
		}
	],
	"textures":[
		{
			"sampler":0,
			"source":0
		}
	],
	"images":[
		{
			"mimeType":"image/jpeg",
			"name":"Material0_baseColor",
			"uri":"textures/Material0_baseColor.jpg"
		}
	],
	"accessors":[
		{
			"bufferView":0,
			"componentType":5126,
			"count":32708,
			"max":[
				176.90054321289062,
				536.1888427734375,
				127.62336730957031
			],
			"min":[
				-192.620361328125,
				-463.8111572265625,
				-151.62295532226562
			],
			"type":"VEC3"
		},
		{
			"bufferView":1,
			"componentType":5126,
			"count":32708,
			"type":"VEC3"
		},
		{
			"bufferView":2,
			"componentType":5126,
			"count":32708,
			"type":"VEC2"
		},
		{
			"bufferView":3,
			"componentType":5123,
			"count":152106,
			"type":"SCALAR"
		}
	],
	"bufferViews":[
		{
			"buffer":0,
			"byteLength":392496,
			"byteOffset":0,
			"target":34962
		},
		{
			"buffer":0,
			"byteLength":392496,
			"byteOffset":392496,
			"target":34962
		},
		{
			"buffer":0,
			"byteLength":261664,
			"byteOffset":784992,
			"target":34962
		},
		{
			"buffer":0,
			"byteLength":304212,
			"byteOffset":1046656,
			"target":34963
		}
	],
	"samplers":[
		{
			"magFilter":9729,
			"minFilter":9987
		}
	],
	"buffers":[
		{
			"byteLength":1350868,
			"uri":"scene.bin"
		}
	]
}
