{
  "accessors": [
    {
      "bufferView": 2,
      "componentType": 5126,
      "count": 32619,
      "max": [
        176.90054321289063,
        536.1888427734375,
        127.62336730957031
      ],
      "min": [
        -192.620361328125,
        -463.8111572265625,
        -151.62295532226563
      ],
      "type": "VEC3"
    },
    {
      "bufferView": 2,
      "byteOffset": 391428,
      "componentType": 5126,
      "count": 32619,
      "max": [
        0.9999830722808838,
        0.9999893307685852,
        0.9999976754188538
      ],
      "min": [
        -0.9999857544898987,
        -0.9946744441986084,
        -0.9999865293502808
      ],
      "type": "VEC3"
    },
    {
      "bufferView": 1,
      "componentType": 5126,
      "count": 32619,
      "max": [
        0.9992361664772034,
        0.9997537732124329
      ],
      "min": [
        0.000261990528088063,
        0.003459632396697998
      ],
      "type": "VEC2"
    },
    {
      "bufferView": 0,
      "componentType": 5125,
      "count": 152106,
      "type": "SCALAR"
    }
  ],
  "asset": {
    "extras": {
      "author": "Frédérique Bertrand - 3D Imago Urbis (https://sketchfab.com/fre3darchi)",
      "license": "CC-BY-4.0 (http://creativecommons.org/licenses/by/4.0/)",
      "source": "https://sketchfab.com/3d-models/statue-depoque-romaine-statue-roman-period-7fa78479a63b4358bd1edeba44f8266f",
      "title": "Statue d'époque romaine / Statue roman period"
    },
    "generator": "Sketchfab-12.65.0",
    "version": "2.0"
  },
  "bufferViews": [
    {
      "buffer": 0,
      "byteLength": 608424,
      "name": "floatBufferViews",
      "target": 34963
    },
    {
      "buffer": 0,
      "byteLength": 260952,
      "byteOffset": 608424,
      "byteStride": 8,
      "name": "floatBufferViews",
      "target": 34962
    },
    {
      "buffer": 0,
      "byteLength": 782856,
      "byteOffset": 869376,
      "byteStride": 12,
      "name": "floatBufferViews",
      "target": 34962
    }
  ],
  "buffers": [
    {
      "byteLength": 1652232,
      "uri": "scene.bin"
    }
  ],
  "extensionsUsed": [
    "KHR_materials_unlit"
  ],
  "images": [
    {
      "uri": "textures/Material0_baseColor.jpeg"
    }
  ],
  "materials": [
    {
      "doubleSided": true,
      "emissiveFactor": [
        0.34925187990801965,
        0.34925187990801965,
        0.34925187990801965
      ],
      "emissiveTexture": {
        "index": 0
      },
      "extensions": {
        "KHR_materials_unlit": {}
      },
      "name": "Material0",
      "pbrMetallicRoughness": {
        "baseColorTexture": {
          "index": 0
        },
        "metallicFactor": 0.0
      }
    }
  ],
  "meshes": [
    {
      "name": "Stereo textured mesh_Material0_0",
      "primitives": [
        {
          "attributes": {
            "NORMAL": 1,
            "POSITION": 0,
            "TEXCOORD_0": 2
          },
          "indices": 3,
          "material": 0,
          "mode": 4
        }
      ]
    }
  ],
  "nodes": [
    {
      "children": [
        1
      ],
      "matrix": [
        0.0016889014514163136,
        0.0,
        0.0,
        0.0,
        0.0,
        -0.0016889014514163136,
        -7.500229110740946e-19,
        0.0,
        0.0,
        7.500229110740946e-19,
        -0.0016889014514163136,
        0.0,
        0.0,
        -24.188056945800792,
        48.18740081787109,
        1.0
      ],
      "name": "Sketchfab_model"
    },
    {
      "children": [
        2
      ],
      "matrix": [
        1.0,
        0.0,
        0.0,
        0.0,
        0.0,
        -1.0,
        0.0,
        0.0,
        0.0,
        0.0,
        -1.0,
        0.0,
        0.0,
        0.0,
        0.0,
        1.0
      ],
      "name": "sketchfabTemp.obj.fbx"
    },
    {
      "children": [
        3
      ],
      "name": "RootNode"
    },
    {
      "children": [
        4
      ],
      "name": "Stereo textured mesh"
    },
    {
      "mesh": 0,
      "name": "Stereo textured mesh_Material0_0"
    }
  ],
  "samplers": [
    {
      "magFilter": 9729,
      "minFilter": 9987,
      "wrapS": 10497,
      "wrapT": 10497
    }
  ],
  "scene": 0,
  "scenes": [
    {
      "name": "Sketchfab_Scene",
      "nodes": [
        0
      ]
    }
  ],
  "textures": [
    {
      "sampler": 0,
      "source": 0
    }
  ]
}
