{
	"asset":{
		"generator":"Khronos glTF Blender I/O v4.0.44",
		"version":"2.0"
	},
	"scene":0,
	"scenes":[
		{
			"name":"Scene",
			"nodes":[
				3
			]
		}
	],
	"nodes":[
		{
			"mesh":0,
			"name":"Object_2",
			"translation":[
				1.2868216037750244,
				0.0014775370946153998,
				3.1183178424835205
			]
		},
		{
			"mesh":1,
			"name":"Object_3"
		},
		{
			"children":[
				0,
				1
			],
			"name":"14b59550f9d940eba8b487ab21696651.obj.cleaner.materialmerger.gle"
		},
		{
			"children":[
				2
			],
			"name":"Sketchfab_model",
			"rotation":[
				-0.70710688829422,
				0,
				0,
				0.7071066498756409
			]
		}
	],
	"materials":[
		{
			"doubleSided":true,
			"name":"None",
			"normalTexture":{
				"index":0
			},
			"occlusionTexture":{
				"index":1
			},
			"pbrMetallicRoughness":{
				"baseColorTexture":{
					"index":2
				},
				"metallicRoughnessTexture":{
					"index":1
				}
			}
		},
		{
			"doubleSided":true,
			"name":"Material.001",
			"normalTexture":{
				"index":3
			},
			"occlusionTexture":{
				"index":4
			},
			"pbrMetallicRoughness":{
				"baseColorTexture":{
					"index":5
				},
				"metallicRoughnessTexture":{
					"index":4
				}
			}
		}
	],
	"meshes":[
		{
			"name":"Object_0",
			"primitives":[
				{
					"attributes":{
						"POSITION":0,
						"NORMAL":1,
						"TEXCOORD_0":2
					},
					"indices":3,
					"material":0
				}
			]
		},
		{
			"name":"Object_1",
			"primitives":[
				{
					"attributes":{
						"POSITION":4,
						"NORMAL":5,
						"TEXCOORD_0":6
					},
					"indices":7,
					"material":1
				}
			]
		}
	],
	"textures":[
		{
			"sampler":0,
			"source":0
		},
		{
			"sampler":0,
			"source":1
		},
		{
			"sampler":0,
			"source":2
		},
		{
			"sampler":0,
			"source":3
		},
		{
			"sampler":0,
			"source":4
		},
		{
			"sampler":0,
			"source":5
		}
	],
	"images":[
		{
			"mimeType":"image/png",
			"name":"None_normal",
			"uri":"textures/None_normal.png"
		},
		{
			"mimeType":"image/png",
			"name":"None_metallicRoughness",
			"uri":"textures/None_metallicRoughness.png"
		},
		{
			"mimeType":"image/jpeg",
			"name":"None_baseColor",
			"uri":"textures/None_baseColor.jpg"
		},
		{
			"mimeType":"image/png",
			"name":"Material.001_normal",
			"uri":"textures/Material_001_normal.png"
		},
		{
			"mimeType":"image/png",
			"name":"Material.001_metallicRoughness",
			"uri":"textures/Material_001_metallicRoughness.png"
		},
		{
			"mimeType":"image/jpeg",
			"name":"Material.001_baseColor",
			"uri":"textures/Material_001_baseColor.jpg"
		}
	],
	"accessors":[
		{
			"bufferView":0,
			"componentType":5126,
			"count":3002,
			"max":[
				0.01973140239715576,
				0.3074004650115967,
				2.797724962234497
			],
			"min":[
				-2.5596704483032227,
				-0.310355544090271,
				-3.1108758449554443
			],
			"type":"VEC3"
		},
		{
			"bufferView":1,
			"componentType":5126,
			"count":3002,
			"type":"VEC3"
		},
		{
			"bufferView":2,
			"componentType":5126,
			"count":3002,
			"type":"VEC2"
		},
		{
			"bufferView":3,
			"componentType":5123,
			"count":11004,
			"type":"SCALAR"
		},
		{
			"bufferView":4,
			"componentType":5126,
			"count":122,
			"max":[
				1.5983330011367798,
				0.45025500655174255,
				6.219295978546143
			],
			"min":[
				-1.5871310234069824,
				-0.13611599802970886,
				0.0033319999929517508
			],
			"type":"VEC3"
		},
		{
			"bufferView":5,
			"componentType":5126,
			"count":122,
			"type":"VEC3"
		},
		{
			"bufferView":6,
			"componentType":5126,
			"count":122,
			"type":"VEC2"
		},
		{
			"bufferView":7,
			"componentType":5123,
			"count":180,
			"type":"SCALAR"
		}
	],
	"bufferViews":[
		{
			"buffer":0,
			"byteLength":36024,
			"byteOffset":0,
			"target":34962
		},
		{
			"buffer":0,
			"byteLength":36024,
			"byteOffset":36024,
			"target":34962
		},
		{
			"buffer":0,
			"byteLength":24016,
			"byteOffset":72048,
			"target":34962
		},
		{
			"buffer":0,
			"byteLength":22008,
			"byteOffset":96064,
			"target":34963
		},
		{
			"buffer":0,
			"byteLength":1464,
			"byteOffset":118072,
			"target":34962
		},
		{
			"buffer":0,
			"byteLength":1464,
			"byteOffset":119536,
			"target":34962
		},
		{
			"buffer":0,
			"byteLength":976,
			"byteOffset":121000,
			"target":34962
		},
		{
			"buffer":0,
			"byteLength":360,
			"byteOffset":121976,
			"target":34963
		}
	],
	"samplers":[
		{
			"magFilter":9729,
			"minFilter":9987
		}
	],
	"buffers":[
		{
			"byteLength":122336,
			"uri":"door.bin"
		}
	]
}
