{
	"asset":{
		"generator":"Khronos glTF Blender I/O v4.0.44",
		"version":"2.0"
	},
	"scene":0,
	"scenes":[
		{
			"name":"Scene",
			"nodes":[
				4
			]
		}
	],
	"nodes":[
		{
			"mesh":0,
			"name":"Object_4"
		},
		{
			"children":[
				0
			],
			"name":"_0"
		},
		{
			"children":[
				1
			],
			"name":"GLTF_SceneRootNode",
			"rotation":[
				0.70710688829422,
				0,
				0,
				0.7071066498756409
			]
		},
		{
			"children":[
				2
			],
			"name":"root"
		},
		{
			"children":[
				3
			],
			"name":"Sketchfab_model",
			"rotation":[
				-0.70710688829422,
				0,
				0,
				0.7071066498756409
			]
		}
	],
	"materials":[
		{
			"name":"material_0",
			"pbrMetallicRoughness":{
				"baseColorTexture":{
					"index":0
				},
				"metallicFactor":0,
				"roughnessFactor":0.5
			}
		}
	],
	"meshes":[
		{
			"name":"Object_0",
			"primitives":[
				{
					"attributes":{
						"POSITION":0,
						"NORMAL":1,
						"TEXCOORD_0":2,
						"TEXCOORD_1":3,
						"TEXCOORD_2":4,
						"TEXCOORD_3":5,
						"TEXCOORD_4":6
					},
					"indices":7,
					"material":0
				}
			]
		}
	],
	"textures":[
		{
			"sampler":0,
			"source":0
		}
	],
	"images":[
		{
			"mimeType":"image/jpeg",
			"name":"material_0_baseColor",
			"uri":"textures/material_0_baseColor.jpg"
		}
	],
	"accessors":[
		{
			"bufferView":0,
			"componentType":5126,
			"count":34419,
			"max":[
				0.7288962006568909,
				0.4001017212867737,
				-0.11254756152629852
			],
			"min":[
				0.22720277309417725,
				-0.10496550798416138,
				-0.6113599538803101
			],
			"type":"VEC3"
		},
		{
			"bufferView":1,
			"componentType":5126,
			"count":34419,
			"type":"VEC3"
		},
		{
			"bufferView":2,
			"componentType":5126,
			"count":34419,
			"type":"VEC2"
		},
		{
			"bufferView":3,
			"componentType":5126,
			"count":34419,
			"type":"VEC2"
		},
		{
			"bufferView":4,
			"componentType":5126,
			"count":34419,
			"type":"VEC2"
		},
		{
			"bufferView":5,
			"componentType":5126,
			"count":34419,
			"type":"VEC2"
		},
		{
			"bufferView":6,
			"componentType":5126,
			"count":34419,
			"type":"VEC2"
		},
		{
			"bufferView":7,
			"componentType":5123,
			"count":170148,
			"type":"SCALAR"
		}
	],
	"bufferViews":[
		{
			"buffer":0,
			"byteLength":413028,
			"byteOffset":0,
			"target":34962
		},
		{
			"buffer":0,
			"byteLength":413028,
			"byteOffset":413028,
			"target":34962
		},
		{
			"buffer":0,
			"byteLength":275352,
			"byteOffset":826056,
			"target":34962
		},
		{
			"buffer":0,
			"byteLength":275352,
			"byteOffset":1101408,
			"target":34962
		},
		{
			"buffer":0,
			"byteLength":275352,
			"byteOffset":1376760,
			"target":34962
		},
		{
			"buffer":0,
			"byteLength":275352,
			"byteOffset":1652112,
			"target":34962
		},
		{
			"buffer":0,
			"byteLength":275352,
			"byteOffset":1927464,
			"target":34962
		},
		{
			"buffer":0,
			"byteLength":340296,
			"byteOffset":2202816,
			"target":34963
		}
	],
	"samplers":[
		{
			"magFilter":9729,
			"minFilter":9987
		}
	],
	"buffers":[
		{
			"byteLength":2543112,
			"uri":"scene.bin"
		}
	]
}
