{
  "accessors": [
    {
      "bufferView": 2,
      "componentType": 5126,
      "count": 34404,
      "max": [
        0.7288962006568909,
        0.4001017212867737,
        -0.11254756152629852
      ],
      "min": [
        0.22720277309417725,
        -0.10496550798416138,
        -0.6113599538803101
      ],
      "type": "VEC3"
    },
    {
      "bufferView": 2,
      "byteOffset": 412848,
      "componentType": 5126,
      "count": 34404,
      "max": [
        0.9999701976776123,
        0.9999974966049194,
        0.9999521374702454
      ],
      "min": [
        -0.9997786283493042,
        -0.9986051321029663,
        -0.9999887347221375
      ],
      "type": "VEC3"
    },
    {
      "bufferView": 1,
      "componentType": 5126,
      "count": 34404,
      "max": [
        0.9999376535415649,
        0.9993428587913513
      ],
      "min": [
        3.8958176446612924e-05,
        2.855912498489488e-05
      ],
      "type": "VEC2"
    },
    {
      "bufferView": 1,
      "byteOffset": 275232,
      "componentType": 5126,
      "count": 34404,
      "max": [
        0.9999376535415649,
        0.9993428587913513
      ],
      "min": [
        3.8958176446612924e-05,
        2.855912498489488e-05
      ],
      "type": "VEC2"
    },
    {
      "bufferView": 1,
      "byteOffset": 550464,
      "componentType": 5126,
      "count": 34404,
      "max": [
        0.9999376535415649,
        0.9993428587913513
      ],
      "min": [
        3.8958176446612924e-05,
        2.855912498489488e-05
      ],
      "type": "VEC2"
    },
    {
      "bufferView": 1,
      "byteOffset": 825696,
      "componentType": 5126,
      "count": 34404,
      "max": [
        0.9999376535415649,
        0.9993428587913513
      ],
      "min": [
        3.8958176446612924e-05,
        2.855912498489488e-05
      ],
      "type": "VEC2"
    },
    {
      "bufferView": 1,
      "byteOffset": 1100928,
      "componentType": 5126,
      "count": 34404,
      "max": [
        0.9999376535415649,
        0.9993428587913513
      ],
      "min": [
        3.8958176446612924e-05,
        2.855912498489488e-05
      ],
      "type": "VEC2"
    },
    {
      "bufferView": 0,
      "componentType": 5125,
      "count": 170148,
      "type": "SCALAR"
    }
  ],
  "asset": {
    "extras": {
      "author": "geckty (https://sketchfab.com/geckty)",
      "license": "CC-BY-NC-SA-4.0 (http://creativecommons.org/licenses/by-nc-sa/4.0/)",
      "source": "https://sketchfab.com/3d-models/house-plant-001-petitesmall-still-life-5258ac6c7f9640e494e50af4f1f4127d",
      "title": "House Plant 001 Petite/Small Still Life"
    },
    "generator": "Sketchfab-14.64.0",
    "version": "2.0"
  },
  "bufferViews": [
    {
      "buffer": 0,
      "byteLength": 680592,
      "name": "floatBufferViews",
      "target": 34963
    },
    {
      "buffer": 0,
      "byteLength": 1376160,
      "byteOffset": 680592,
      "byteStride": 8,
      "name": "floatBufferViews",
      "target": 34962
    },
    {
      "buffer": 0,
      "byteLength": 825696,
      "byteOffset": 2056752,
      "byteStride": 12,
      "name": "floatBufferViews",
      "target": 34962
    }
  ],
  "buffers": [
    {
      "byteLength": 2882448,
      "uri": "scene.bin"
    }
  ],
  "extensionsUsed": [
    "KHR_materials_unlit"
  ],
  "images": [
    {
      "uri": "textures/material_0_baseColor.jpeg"
    }
  ],
  "materials": [
    {
      "extensions": {
        "KHR_materials_unlit": {}
      },
      "name": "material_0",
      "pbrMetallicRoughness": {
        "baseColorTexture": {
          "index": 0
        },
        "metallicFactor": 0.0
      }
    }
  ],
  "meshes": [
    {
      "name": "Object_0",
      "primitives": [
        {
          "attributes": {
            "NORMAL": 1,
            "POSITION": 0,
            "TEXCOORD_0": 2,
            "TEXCOORD_1": 3,
            "TEXCOORD_2": 4,
            "TEXCOORD_3": 5,
            "TEXCOORD_4": 6
          },
          "indices": 7,
          "material": 0,
          "mode": 4
        }
      ]
    }
  ],
  "nodes": [
    {
      "children": [
        1
      ],
      "matrix": [
        1.0,
        0.0,
        0.0,
        0.0,
        0.0,
        2.220446049250313e-16,
        -1.0,
        0.0,
        0.0,
        1.0,
        2.220446049250313e-16,
        0.0,
        0.0,
        0.0,
        0.0,
        1.0
      ],
      "name": "Sketchfab_model"
    },
    {
      "children": [
        2
      ],
      "name": "root"
    },
    {
      "children": [
        3
      ],
      "matrix": [
        1.0,
        0.0,
        0.0,
        0.0,
        0.0,
        2.220446049250313e-16,
        1.0,
        0.0,
        0.0,
        -1.0,
        2.220446049250313e-16,
        0.0,
        0.0,
        0.0,
        0.0,
        1.0
      ],
      "name": "GLTF_SceneRootNode"
    },
    {
      "children": [
        4
      ],
      "name": "_0"
    },
    {
      "mesh": 0,
      "name": "Object_4"
    }
  ],
  "samplers": [
    {
      "magFilter": 9729,
      "minFilter": 9987,
      "wrapS": 10497,
      "wrapT": 10497
    }
  ],
  "scene": 0,
  "scenes": [
    {
      "name": "Sketchfab_Scene",
      "nodes": [
        0
      ]
    }
  ],
  "textures": [
    {
      "sampler": 0,
      "source": 0
    }
  ]
}
