{
  "accessors": [
    {
      "bufferView": 2,
      "componentType": 5126,
      "count": 545,
      "max": [
        2.7274789810180664,
        21.50096893310547,
        2.7274818420410156
      ],
      "min": [
        -2.7274789810180664,
        0.005173857789486647,
        -2.7274765968322754
      ],
      "type": "VEC3"
    },
    {
      "bufferView": 2,
      "byteOffset": 6540,
      "componentType": 5126,
      "count": 545,
      "max": [
        1.0,
        1.0,
        1.0
      ],
      "min": [
        -1.0,
        -1.0,
        -1.0
      ],
      "type": "VEC3"
    },
    {
      "bufferView": 3,
      "componentType": 5126,
      "count": 545,
      "max": [
        1.0,
        0.9988737106323242,
        1.0,
        1.0
      ],
      "min": [
        -1.0,
        -0.9995627403259277,
        -1.0,
        1.0
      ],
      "type": "VEC4"
    },
    {
      "bufferView": 1,
      "componentType": 5126,
      "count": 545,
      "max": [
        0.962232232093811,
        0.9171518087387085
      ],
      "min": [
        0.12928618490695953,
        0.004750728607177734
      ],
      "type": "VEC2"
    },
    {
      "bufferView": 1,
      "byteOffset": 4360,
      "componentType": 5126,
      "count": 545,
      "max": [
        0.962232232093811,
        0.9171518087387085
      ],
      "min": [
        0.12928618490695953,
        0.004750728607177734
      ],
      "type": "VEC2"
    },
    {
      "bufferView": 0,
      "componentType": 5125,
      "count": 2238,
      "type": "SCALAR"
    },
    {
      "bufferView": 2,
      "byteOffset": 13080,
      "componentType": 5126,
      "count": 1084,
      "max": [
        5.46714448928833,
        19.41571807861328,
        3.366497039794922
      ],
      "min": [
        -2.9696977138519287,
        0.05531526356935501,
        -3.3664968013763428
      ],
      "type": "VEC3"
    },
    {
      "bufferView": 2,
      "byteOffset": 26088,
      "componentType": 5126,
      "count": 1084,
      "max": [
        1.0,
        1.0,
        1.0
      ],
      "min": [
        -1.0,
        -1.0,
        -1.0
      ],
      "type": "VEC3"
    },
    {
      "bufferView": 3,
      "byteOffset": 8720,
      "componentType": 5126,
      "count": 1084,
      "max": [
        1.0,
        1.0,
        1.0,
        1.0
      ],
      "min": [
        -1.0,
        -1.0,
        -1.0,
        1.0
      ],
      "type": "VEC4"
    },
    {
      "bufferView": 1,
      "byteOffset": 8720,
      "componentType": 5126,
      "count": 1084,
      "max": [
        0.9346509575843811,
        0.9737949371337891
      ],
      "min": [
        0.004267284180969,
        0.004278816282749176
      ],
      "type": "VEC2"
    },
    {
      "bufferView": 1,
      "byteOffset": 17392,
      "componentType": 5126,
      "count": 1084,
      "max": [
        0.9346509575843811,
        0.9737949371337891
      ],
      "min": [
        0.004267284180969,
        0.004278816282749176
      ],
      "type": "VEC2"
    },
    {
      "bufferView": 0,
      "byteOffset": 8952,
      "componentType": 5125,
      "count": 4794,
      "type": "SCALAR"
    },
    {
      "bufferView": 2,
      "byteOffset": 39096,
      "componentType": 5126,
      "count": 749,
      "max": [
        3.2260754108428955,
        23.171472549438477,
        4.616069316864014
      ],
      "min": [
        -3.2260754108428955,
        0.0,
        -4.6160688400268555
      ],
      "type": "VEC3"
    },
    {
      "bufferView": 2,
      "byteOffset": 48084,
      "componentType": 5126,
      "count": 749,
      "max": [
        1.0,
        1.0,
        1.0
      ],
      "min": [
        -1.0,
        -1.0,
        -1.0
      ],
      "type": "VEC3"
    },
    {
      "bufferView": 3,
      "byteOffset": 26064,
      "componentType": 5126,
      "count": 749,
      "max": [
        1.0,
        1.0,
        1.0,
        1.0
      ],
      "min": [
        -1.0,
        -1.0,
        -1.0,
        1.0
      ],
      "type": "VEC4"
    },
    {
      "bufferView": 1,
      "byteOffset": 26064,
      "componentType": 5126,
      "count": 749,
      "max": [
        0.9951801300048828,
        0.9957319498062134
      ],
      "min": [
        0.004268527030944824,
        0.0044905696995556355
      ],
      "type": "VEC2"
    },
    {
      "bufferView": 1,
      "byteOffset": 32056,
      "componentType": 5126,
      "count": 749,
      "max": [
        0.9951801300048828,
        0.9957319498062134
      ],
      "min": [
        0.004268527030944824,
        0.0044905696995556355
      ],
      "type": "VEC2"
    },
    {
      "bufferView": 0,
      "byteOffset": 28128,
      "componentType": 5125,
      "count": 2472,
      "type": "SCALAR"
    },
    {
      "bufferView": 2,
      "byteOffset": 57072,
      "componentType": 5126,
      "count": 1606,
      "max": [
        3.546621322631836,
        16.947124481201172,
        3.5466108322143555
      ],
      "min": [
        -3.546623468399048,
        0.005173496901988983,
        -3.5466301441192627
      ],
      "type": "VEC3"
    },
    {
      "bufferView": 2,
      "byteOffset": 76344,
      "componentType": 5126,
      "count": 1606,
      "max": [
        0.9999837875366211,
        1.0,
        0.9999858736991882
      ],
      "min": [
        -0.9999858736991882,
        -1.0,
        -0.999985933303833
      ],
      "type": "VEC3"
    },
    {
      "bufferView": 3,
      "byteOffset": 38048,
      "componentType": 5126,
      "count": 1606,
      "max": [
        0.9999882578849792,
        0.9998442530632019,
        0.9999837279319763,
        1.0
      ],
      "min": [
        -0.9999837875366211,
        -1.0,
        -0.9999849200248718,
        -1.0
      ],
      "type": "VEC4"
    },
    {
      "bufferView": 1,
      "byteOffset": 38048,
      "componentType": 5126,
      "count": 1606,
      "max": [
        0.9497125148773193,
        0.9510694146156311
      ],
      "min": [
        0.004284389782696962,
        0.004290466196835041
      ],
      "type": "VEC2"
    },
    {
      "bufferView": 1,
      "byteOffset": 50896,
      "componentType": 5126,
      "count": 1606,
      "max": [
        0.9497125148773193,
        0.9510694146156311
      ],
      "min": [
        0.004284389782696962,
        0.004290466196835041
      ],
      "type": "VEC2"
    },
    {
      "bufferView": 0,
      "byteOffset": 38016,
      "componentType": 5125,
      "count": 6630,
      "type": "SCALAR"
    },
    {
      "bufferView": 2,
      "byteOffset": 95616,
      "componentType": 5126,
      "count": 346,
      "max": [
        2.0237247943878174,
        1.9916553497314453,
        5.655122756958008
      ],
      "min": [
        -2.0237247943878174,
        0.027456073090434074,
        -5.1790361404418945
      ],
      "type": "VEC3"
    },
    {
      "bufferView": 2,
      "byteOffset": 99768,
      "componentType": 5126,
      "count": 346,
      "max": [
        1.0,
        0.9999889731407166,
        1.0
      ],
      "min": [
        -1.0,
        -0.9999809265136719,
        -0.9911686182022095
      ],
      "type": "VEC3"
    },
    {
      "bufferView": 3,
      "byteOffset": 63744,
      "componentType": 5126,
      "count": 346,
      "max": [
        1.0,
        0.9911688566207886,
        0.9961826205253601,
        1.0
      ],
      "min": [
        -1.0,
        -1.0,
        -0.9924810528755188,
        1.0
      ],
      "type": "VEC4"
    },
    {
      "bufferView": 1,
      "byteOffset": 63744,
      "componentType": 5126,
      "count": 346,
      "max": [
        0.9916937351226807,
        0.921738862991333
      ],
      "min": [
        0.07865554094314575,
        0.004266620147973299
      ],
      "type": "VEC2"
    },
    {
      "bufferView": 1,
      "byteOffset": 66512,
      "componentType": 5126,
      "count": 346,
      "max": [
        0.9916937351226807,
        0.921738862991333
      ],
      "min": [
        0.07865554094314575,
        0.004266620147973299
      ],
      "type": "VEC2"
    },
    {
      "bufferView": 0,
      "byteOffset": 64536,
      "componentType": 5125,
      "count": 906,
      "type": "SCALAR"
    },
    {
      "bufferView": 2,
      "byteOffset": 103920,
      "componentType": 5126,
      "count": 6965,
      "max": [
        12.848531723022461,
        25.705904006958008,
        22.62602424621582
      ],
      "min": [
        -13.497030258178711,
        0.0638570487499237,
        -26.82090950012207
      ],
      "type": "VEC3"
    },
    {
      "bufferView": 2,
      "byteOffset": 187500,
      "componentType": 5126,
      "count": 6965,
      "max": [
        1.0,
        1.0,
        1.0
      ],
      "min": [
        -1.0,
        -1.0,
        -1.0
      ],
      "type": "VEC3"
    },
    {
      "bufferView": 3,
      "byteOffset": 69280,
      "componentType": 5126,
      "count": 6965,
      "max": [
        0.833011269569397,
        1.0,
        0.9999989867210388,
        1.0
      ],
      "min": [
        -0.9999954700469971,
        -1.0,
        -0.9999999403953552,
        -1.0
      ],
      "type": "VEC4"
    },
    {
      "bufferView": 1,
      "byteOffset": 69280,
      "componentType": 5126,
      "count": 6965,
      "max": [
        0.9749053716659546,
        0.9975493550300598
      ],
      "min": [
        0.0024444833397865295,
        0.0024489739444106817
      ],
      "type": "VEC2"
    },
    {
      "bufferView": 1,
      "byteOffset": 125000,
      "componentType": 5126,
      "count": 6965,
      "max": [
        0.9749053716659546,
        0.9975493550300598
      ],
      "min": [
        0.0024444833397865295,
        0.0024489739444106817
      ],
      "type": "VEC2"
    },
    {
      "bufferView": 1,
      "byteOffset": 180720,
      "componentType": 5126,
      "count": 6965,
      "max": [
        0.9749053716659546,
        0.9975493550300598
      ],
      "min": [
        0.0024444833397865295,
        0.0024489739444106817
      ],
      "type": "VEC2"
    },
    {
      "bufferView": 0,
      "byteOffset": 68160,
      "componentType": 5125,
      "count": 30456,
      "type": "SCALAR"
    }
  ],
  "asset": {
    "extras": {
      "author": "HippoStance (https://sketchfab.com/hippostance)",
      "license": "CC-BY-4.0 (http://creativecommons.org/licenses/by/4.0/)",
      "source": "https://sketchfab.com/3d-models/toiletries-f00fd952b5c640a1babf70cce5312d79",
      "title": "Toiletries"
    },
    "generator": "Sketchfab-12.68.0",
    "version": "2.0"
  },
  "bufferViews": [
    {
      "buffer": 0,
      "byteLength": 189984,
      "name": "floatBufferViews",
      "target": 34963
    },
    {
      "buffer": 0,
      "byteLength": 236440,
      "byteOffset": 189984,
      "byteStride": 8,
      "name": "floatBufferViews",
      "target": 34962
    },
    {
      "buffer": 0,
      "byteLength": 271080,
      "byteOffset": 426424,
      "byteStride": 12,
      "name": "floatBufferViews",
      "target": 34962
    },
    {
      "buffer": 0,
      "byteLength": 180720,
      "byteOffset": 697504,
      "byteStride": 16,
      "name": "floatBufferViews",
      "target": 34962
    }
  ],
  "buffers": [
    {
      "byteLength": 878224,
      "uri": "scene.bin"
    }
  ],
  "images": [
    {
      "uri": "textures/Toiletries_baseColor.png"
    },
    {
      "uri": "textures/Toiletries_metallicRoughness.png"
    },
    {
      "uri": "textures/Toiletries_normal.png"
    },
    {
      "uri": "textures/ToiletPaperPackage_baseColor.png"
    },
    {
      "uri": "textures/ToiletPaperPackage_metallicRoughness.png"
    },
    {
      "uri": "textures/ToiletPaperPackage_normal.png"
    }
  ],
  "materials": [
    {
      "name": "Toiletries",
      "normalTexture": {
        "index": 2
      },
      "occlusionTexture": {
        "index": 1
      },
      "pbrMetallicRoughness": {
        "baseColorTexture": {
          "index": 0
        },
        "metallicRoughnessTexture": {
          "index": 1
        }
      }
    },
    {
      "alphaMode": "BLEND",
      "doubleSided": true,
      "name": "ToiletPaperPackage",
      "normalTexture": {
        "index": 5
      },
      "occlusionTexture": {
        "index": 4
      },
      "pbrMetallicRoughness": {
        "baseColorTexture": {
          "index": 3
        },
        "metallicRoughnessTexture": {
          "index": 4
        }
      }
    }
  ],
  "meshes": [
    {
      "name": "AirFreshener_Toiletries_0",
      "primitives": [
        {
          "attributes": {
            "NORMAL": 1,
            "POSITION": 0,
            "TANGENT": 2,
            "TEXCOORD_0": 3,
            "TEXCOORD_1": 4
          },
          "indices": 5,
          "material": 0,
          "mode": 4
        }
      ]
    },
    {
      "name": "Soap_Toiletries_0",
      "primitives": [
        {
          "attributes": {
            "NORMAL": 7,
            "POSITION": 6,
            "TANGENT": 8,
            "TEXCOORD_0": 9,
            "TEXCOORD_1": 10
          },
          "indices": 11,
          "material": 0,
          "mode": 4
        }
      ]
    },
    {
      "name": "Mouthwash_Toiletries_0",
      "primitives": [
        {
          "attributes": {
            "NORMAL": 13,
            "POSITION": 12,
            "TANGENT": 14,
            "TEXCOORD_0": 15,
            "TEXCOORD_1": 16
          },
          "indices": 17,
          "material": 0,
          "mode": 4
        }
      ]
    },
    {
      "name": "ShavingCream_Toiletries_0",
      "primitives": [
        {
          "attributes": {
            "NORMAL": 19,
            "POSITION": 18,
            "TANGENT": 20,
            "TEXCOORD_0": 21,
            "TEXCOORD_1": 22
          },
          "indices": 23,
          "material": 0,
          "mode": 4
        }
      ]
    },
    {
      "name": "Shaver_Toiletries_0",
      "primitives": [
        {
          "attributes": {
            "NORMAL": 25,
            "POSITION": 24,
            "TANGENT": 26,
            "TEXCOORD_0": 27,
            "TEXCOORD_1": 28
          },
          "indices": 29,
          "material": 0,
          "mode": 4
        }
      ]
    },
    {
      "name": "ToiletPaperPackage_ToiletPaperPackage_0",
      "primitives": [
        {
          "attributes": {
            "NORMAL": 31,
            "POSITION": 30,
            "TANGENT": 32,
            "TEXCOORD_0": 33,
            "TEXCOORD_1": 34,
            "TEXCOORD_2": 35
          },
          "indices": 36,
          "material": 1,
          "mode": 4
        }
      ]
    }
  ],
  "nodes": [
    {
      "children": [
        1
      ],
      "matrix": [
        0.009999999776482582,
        0.0,
        0.0,
        0.0,
        0.0,
        2.2204459996194763e-18,
        -0.009999999776482582,
        0.0,
        0.0,
        0.009999999776482582,
        2.2204459996194763e-18,
        0.0,
        0.0,
        0.0,
        0.0,
        1.0
      ],
      "name": "Sketchfab_model"
    },
    {
      "children": [
        2
      ],
      "matrix": [
        1.0,
        0.0,
        0.0,
        0.0,
        0.0,
        0.0,
        1.0,
        0.0,
        0.0,
        -1.0,
        0.0,
        0.0,
        0.0,
        0.0,
        0.0,
        1.0
      ],
      "name": "Toiletries.fbx"
    },
    {
      "children": [
        3,
        5,
        7,
        9,
        11,
        13
      ],
      "name": "RootNode"
    },
    {
      "children": [
        4
      ],
      "matrix": [
        1.0,
        0.0,
        0.0,
        0.0,
        0.0,
        1.0,
        0.0,
        0.0,
        0.0,
        0.0,
        1.0,
        0.0,
        -5.462245464324951,
        0.0,
        20.401657104492188,
        1.0
      ],
      "name": "AirFreshener"
    },
    {
      "mesh": 0,
      "name": "AirFreshener_Toiletries_0"
    },
    {
      "children": [
        6
      ],
      "matrix": [
        1.0,
        0.0,
        0.0,
        0.0,
        0.0,
        1.0,
        0.0,
        0.0,
        0.0,
        0.0,
        1.0,
        0.0,
        7.282993316650391,
        0.0,
        -3.118777275085449,
        1.0
      ],
      "name": "Soap"
    },
    {
      "mesh": 1,
      "name": "Soap_Toiletries_0"
    },
    {
      "children": [
        8
      ],
      "matrix": [
        1.0,
        0.0,
        0.0,
        0.0,
        0.0,
        1.0,
        0.0,
        0.0,
        0.0,
        0.0,
        1.0,
        0.0,
        0.0,
        0.0,
        11.923479080200195,
        1.0
      ],
      "name": "Mouthwash"
    },
    {
      "mesh": 2,
      "name": "Mouthwash_Toiletries_0"
    },
    {
      "children": [
        10
      ],
      "matrix": [
        1.0,
        0.0,
        0.0,
        0.0,
        0.0,
        1.0,
        0.0,
        0.0,
        0.0,
        0.0,
        1.0,
        0.0,
        -6.2714667320251465,
        0.0,
        0.7711023092269897,
        1.0
      ],
      "name": "ShavingCream"
    },
    {
      "mesh": 3,
      "name": "ShavingCream_Toiletries_0"
    },
    {
      "children": [
        12
      ],
      "matrix": [
        1.0,
        0.0,
        0.0,
        0.0,
        0.0,
        1.0,
        0.0,
        0.0,
        0.0,
        0.0,
        1.0,
        0.0,
        7.445960998535156,
        0.0,
        12.805527687072754,
        1.0
      ],
      "name": "Shaver"
    },
    {
      "mesh": 4,
      "name": "Shaver_Toiletries_0"
    },
    {
      "children": [
        14
      ],
      "matrix": [
        1.0,
        0.0,
        0.0,
        0.0,
        0.0,
        1.0,
        0.0,
        0.0,
        0.0,
        0.0,
        1.0,
        0.0,
        -35.403438568115234,
        0.0,
        5.6356072425842285,
        1.0
      ],
      "name": "ToiletPaperPackage"
    },
    {
      "mesh": 5,
      "name": "ToiletPaperPackage_ToiletPaperPackage_0"
    }
  ],
  "samplers": [
    {
      "magFilter": 9729,
      "minFilter": 9987,
      "wrapS": 10497,
      "wrapT": 10497
    }
  ],
  "scene": 0,
  "scenes": [
    {
      "name": "Sketchfab_Scene",
      "nodes": [
        0
      ]
    }
  ],
  "textures": [
    {
      "sampler": 0,
      "source": 0
    },
    {
      "sampler": 0,
      "source": 1
    },
    {
      "sampler": 0,
      "source": 2
    },
    {
      "sampler": 0,
      "source": 3
    },
    {
      "sampler": 0,
      "source": 4
    },
    {
      "sampler": 0,
      "source": 5
    }
  ]
}
