{
  "accessors": [
    {
      "bufferView": 2,
      "componentType": 5126,
      "count": 6067,
      "max": [
        0.1126505583524704,
        0.13881923258304596,
        0.47667285799980164
      ],
      "min": [
        -0.1126505583524704,
        -0.279935747385025,
        -1.1175870895385742e-08
      ],
      "type": "VEC3"
    },
    {
      "bufferView": 2,
      "byteOffset": 72804,
      "componentType": 5126,
      "count": 6067,
      "max": [
        1.0,
        1.0,
        1.0
      ],
      "min": [
        -1.0,
        -1.0,
        -1.0
      ],
      "type": "VEC3"
    },
    {
      "bufferView": 3,
      "componentType": 5126,
      "count": 6067,
      "max": [
        1.0,
        1.0,
        1.0,
        1.0
      ],
      "min": [
        -1.0,
        -1.0,
        -0.9434016346931458,
        -1.0
      ],
      "type": "VEC4"
    },
    {
      "bufferView": 1,
      "componentType": 5126,
      "count": 6067,
      "max": [
        0.9920819401741028,
        0.9906764030456543
      ],
      "min": [
        0.007819443941116333,
        0.006411547772586346
      ],
      "type": "VEC2"
    },
    {
      "bufferView": 1,
      "byteOffset": 48536,
      "componentType": 5126,
      "count": 6067,
      "max": [
        0.9920819401741028,
        0.9906764030456543
      ],
      "min": [
        0.007819443941116333,
        0.006411547772586346
      ],
      "type": "VEC2"
    },
    {
      "bufferView": 0,
      "componentType": 5125,
      "count": 14004,
      "type": "SCALAR"
    }
  ],
  "asset": {
    "extras": {
      "author": "VeeRuby Technologies Pvt Ltd (https://sketchfab.com/veerubyinc)",
      "license": "CC-BY-4.0 (http://creativecommons.org/licenses/by/4.0/)",
      "source": "https://sketchfab.com/3d-models/microscope-2435e338bf7541a4b919e53df50eeeea",
      "title": "Microscope"
    },
    "generator": "Sketchfab-14.98.0",
    "version": "2.0"
  },
  "bufferViews": [
    {
      "buffer": 0,
      "byteLength": 56016,
      "name": "floatBufferViews",
      "target": 34963
    },
    {
      "buffer": 0,
      "byteLength": 97072,
      "byteOffset": 56016,
      "byteStride": 8,
      "name": "floatBufferViews",
      "target": 34962
    },
    {
      "buffer": 0,
      "byteLength": 145608,
      "byteOffset": 153088,
      "byteStride": 12,
      "name": "floatBufferViews",
      "target": 34962
    },
    {
      "buffer": 0,
      "byteLength": 97072,
      "byteOffset": 298696,
      "byteStride": 16,
      "name": "floatBufferViews",
      "target": 34962
    }
  ],
  "buffers": [
    {
      "byteLength": 395768,
      "uri": "scene.bin"
    }
  ],
  "images": [
    {
      "uri": "textures/Microscope_baseColor.png"
    },
    {
      "uri": "textures/Microscope_metallicRoughness.png"
    },
    {
      "uri": "textures/Microscope_normal.png"
    }
  ],
  "materials": [
    {
      "doubleSided": true,
      "name": "Microscope",
      "normalTexture": {
        "index": 2
      },
      "occlusionTexture": {
        "index": 1
      },
      "pbrMetallicRoughness": {
        "baseColorTexture": {
          "index": 0
        },
        "metallicRoughnessTexture": {
          "index": 1
        },
        "roughnessFactor": 0.06042642820938637
      }
    }
  ],
  "meshes": [
    {
      "name": "Microscope_Microscope_0",
      "primitives": [
        {
          "attributes": {
            "NORMAL": 1,
            "POSITION": 0,
            "TANGENT": 2,
            "TEXCOORD_0": 3,
            "TEXCOORD_1": 4
          },
          "indices": 5,
          "material": 0,
          "mode": 4
        }
      ]
    }
  ],
  "nodes": [
    {
      "children": [
        1
      ],
      "matrix": [
        3.3672335147857666,
        0.0,
        0.0,
        0.0,
        0.0,
        7.476760354809301e-16,
        -3.3672335147857666,
        0.0,
        0.0,
        3.3672335147857666,
        7.476760354809301e-16,
        0.0,
        0.0,
        0.0,
        0.0,
        1.0
      ],
      "name": "Sketchfab_model"
    },
    {
      "children": [
        2
      ],
      "matrix": [
        1.0,
        0.0,
        0.0,
        0.0,
        0.0,
        0.0,
        1.0,
        0.0,
        0.0,
        -1.0,
        0.0,
        0.0,
        0.0,
        0.0,
        0.0,
        1.0
      ],
      "name": "Microscope.FBX"
    },
    {
      "children": [
        3
      ],
      "name": "RootNode"
    },
    {
      "children": [
        4
      ],
      "matrix": [
        1.0,
        0.0,
        0.0,
        0.0,
        0.0,
        0.999999999999999,
        4.371138828673792e-08,
        0.0,
        0.0,
        -4.371138828673792e-08,
        0.999999999999999,
        0.0,
        0.0,
        0.0,
        0.0,
        1.0
      ],
      "name": "Microscope"
    },
    {
      "children": [
        5
      ],
      "matrix": [
        1.0,
        0.0,
        0.0,
        0.0,
        0.0,
        6.123233995736766e-17,
        -1.0,
        0.0,
        -0.0,
        1.0,
        6.123233995736766e-17,
        0.0,
        0.0,
        0.0,
        0.0,
        1.0
      ],
      "name": "Object_4"
    },
    {
      "mesh": 0,
      "name": "Microscope_Microscope_0"
    }
  ],
  "samplers": [
    {
      "magFilter": 9729,
      "minFilter": 9987,
      "wrapS": 10497,
      "wrapT": 10497
    }
  ],
  "scene": 0,
  "scenes": [
    {
      "name": "Sketchfab_Scene",
      "nodes": [
        0
      ]
    }
  ],
  "textures": [
    {
      "sampler": 0,
      "source": 0
    },
    {
      "sampler": 0,
      "source": 1
    },
    {
      "sampler": 0,
      "source": 2
    }
  ]
}
