{
	"asset":{
		"generator":"Khronos glTF Blender I/O v4.0.44",
		"version":"2.0"
	},
	"scene":0,
	"scenes":[
		{
			"name":"Scene",
			"nodes":[
				0,
				1,
				2
			]
		}
	],
	"nodes":[
		{
			"mesh":0,
			"name":"Object_7",
			"rotation":[
				0,
				0,
				0.7071065902709961,
				0.7071069478988647
			],
			"scale":[
				0.5999999642372131,
				0.5999999642372131,
				0.6000000238418579
			],
			"translation":[
				2.6999998092651367,
				-6.6399993896484375,
				0.2199999988079071
			]
		},
		{
			"name":"Parasit",
			"rotation":[
				-0.70710688829422,
				0,
				0,
				0.7071066498756409
			]
		},
		{
			"mesh":1,
			"name":"cross-L.union_Cylinder.006",
			"rotation":[
				0.7071068286895752,
				0,
				0,
				0.7071068286895752
			]
		}
	],
	"materials":[
		{
			"doubleSided":true,
			"name":"Parasit.001",
			"normalTexture":{
				"index":0
			},
			"pbrMetallicRoughness":{
				"baseColorTexture":{
					"index":1
				},
				"metallicFactor":0,
				"metallicRoughnessTexture":{
					"index":2
				}
			}
		},
		{
			"doubleSided":true,
			"name":"low",
			"pbrMetallicRoughness":{
				"baseColorTexture":{
					"index":3
				},
				"metallicFactor":0
			}
		}
	],
	"meshes":[
		{
			"name":"Parasit_Parasit_0.001",
			"primitives":[
				{
					"attributes":{
						"POSITION":0,
						"NORMAL":1,
						"TEXCOORD_0":2
					},
					"indices":3,
					"material":0
				}
			]
		},
		{
			"name":"cross-L.union_Cylinder.006",
			"primitives":[
				{
					"attributes":{
						"POSITION":4,
						"NORMAL":5,
						"TEXCOORD_0":6
					},
					"indices":7,
					"material":1
				}
			]
		}
	],
	"textures":[
		{
			"sampler":0,
			"source":0
		},
		{
			"sampler":0,
			"source":1
		},
		{
			"sampler":0,
			"source":2
		},
		{
			"sampler":0,
			"source":3
		}
	],
	"images":[
		{
			"mimeType":"image/png",
			"name":"Parasit_normal",
			"uri":"Parasit_normal.png"
		},
		{
			"mimeType":"image/png",
			"name":"Parasit_baseColor",
			"uri":"Parasit_baseColor.png"
		},
		{
			"mimeType":"image/png",
			"name":"Parasit_metallicRoughness",
			"uri":"Parasit_metallicRoughness.png"
		},
		{
			"mimeType":"image/png",
			"name":"texture_1",
			"uri":"texture_1.png"
		}
	],
	"accessors":[
		{
			"bufferView":0,
			"componentType":5126,
			"count":8806,
			"max":[
				27.486042022705078,
				10.098505020141602,
				4.994961738586426
			],
			"min":[
				-23.234399795532227,
				-0.3190995156764984,
				-3.771618366241455
			],
			"type":"VEC3"
		},
		{
			"bufferView":1,
			"componentType":5126,
			"count":8806,
			"type":"VEC3"
		},
		{
			"bufferView":2,
			"componentType":5126,
			"count":8806,
			"type":"VEC2"
		},
		{
			"bufferView":3,
			"componentType":5123,
			"count":32766,
			"type":"SCALAR"
		},
		{
			"bufferView":4,
			"componentType":5126,
			"count":5960,
			"max":[
				7.369688034057617,
				1.9340280294418335,
				12.59481143951416
			],
			"min":[
				-8.064268112182617,
				-0.7963659763336182,
				-14.743474006652832
			],
			"type":"VEC3"
		},
		{
			"bufferView":5,
			"componentType":5126,
			"count":5960,
			"type":"VEC3"
		},
		{
			"bufferView":6,
			"componentType":5126,
			"count":5960,
			"type":"VEC2"
		},
		{
			"bufferView":7,
			"componentType":5123,
			"count":28032,
			"type":"SCALAR"
		}
	],
	"bufferViews":[
		{
			"buffer":0,
			"byteLength":105672,
			"byteOffset":0,
			"target":34962
		},
		{
			"buffer":0,
			"byteLength":105672,
			"byteOffset":105672,
			"target":34962
		},
		{
			"buffer":0,
			"byteLength":70448,
			"byteOffset":211344,
			"target":34962
		},
		{
			"buffer":0,
			"byteLength":65532,
			"byteOffset":281792,
			"target":34963
		},
		{
			"buffer":0,
			"byteLength":71520,
			"byteOffset":347324,
			"target":34962
		},
		{
			"buffer":0,
			"byteLength":71520,
			"byteOffset":418844,
			"target":34962
		},
		{
			"buffer":0,
			"byteLength":47680,
			"byteOffset":490364,
			"target":34962
		},
		{
			"buffer":0,
			"byteLength":56064,
			"byteOffset":538044,
			"target":34963
		}
	],
	"samplers":[
		{
			"magFilter":9729,
			"minFilter":9987
		}
	],
	"buffers":[
		{
			"byteLength":594108,
			"uri":"cross_worm.bin"
		}
	]
}
