{
  "accessors": [
    {
      "bufferView": 2,
      "componentType": 5126,
      "count": 166,
      "max": [
        0.9354454278945923,
        0.9999999403953552,
        2.007711887359619
      ],
      "min": [
        -12.803787231445313,
        -0.9999999403953552,
        0.007712066173553467
      ],
      "type": "VEC3"
    },
    {
      "bufferView": 2,
      "byteOffset": 1992,
      "componentType": 5126,
      "count": 166,
      "max": [
        1.0,
        1.0,
        1.0
      ],
      "min": [
        -1.0,
        -1.0,
        -1.0
      ],
      "type": "VEC3"
    },
    {
      "bufferView": 1,
      "componentType": 5126,
      "count": 166,
      "max": [
        0.9745675325393677,
        0.9976043105125427
      ],
      "min": [
        0.017401278018951416,
        0.005062118172645569
      ],
      "type": "VEC2"
    },
    {
      "bufferView": 0,
      "componentType": 5125,
      "count": 276,
      "type": "SCALAR"
    },
    {
      "bufferView": 2,
      "byteOffset": 3984,
      "componentType": 5126,
      "count": 4,
      "max": [
        -0.21435406804084778,
        0.7830423712730408,
        1.8576668500900269
      ],
      "min": [
        -0.21435406804084778,
        -0.7830423712730408,
        0.15775716304779053
      ],
      "type": "VEC3"
    },
    {
      "bufferView": 2,
      "byteOffset": 4032,
      "componentType": 5126,
      "count": 4,
      "max": [
        -1.0,
        0.0,
        0.0
      ],
      "min": [
        -1.0,
        0.0,
        0.0
      ],
      "type": "VEC3"
    },
    {
      "bufferView": 1,
      "byteOffset": 1328,
      "componentType": 5126,
      "count": 4,
      "max": [
        0.0,
        0.0
      ],
      "min": [
        0.0,
        0.0
      ],
      "type": "VEC2"
    },
    {
      "bufferView": 0,
      "byteOffset": 1104,
      "componentType": 5125,
      "count": 6,
      "type": "SCALAR"
    },
    {
      "bufferView": 2,
      "byteOffset": 4080,
      "componentType": 5126,
      "count": 253,
      "max": [
        -0.7981535196304321,
        0.921822190284729,
        1.844469428062439
      ],
      "min": [
        -1.1774897575378418,
        -0.9211340546607971,
        0.18721067905426025
      ],
      "type": "VEC3"
    },
    {
      "bufferView": 2,
      "byteOffset": 7116,
      "componentType": 5126,
      "count": 253,
      "max": [
        0.9998466968536377,
        1.0,
        0.9935117959976196
      ],
      "min": [
        -0.9998467564582825,
        -1.0,
        -0.9935117959976196
      ],
      "type": "VEC3"
    },
    {
      "bufferView": 1,
      "byteOffset": 1360,
      "componentType": 5126,
      "count": 253,
      "max": [
        0.42537248134613037,
        0.6084163188934326
      ],
      "min": [
        0.3291921615600586,
        0.40365302562713623
      ],
      "type": "VEC2"
    },
    {
      "bufferView": 0,
      "byteOffset": 1128,
      "componentType": 5125,
      "count": 663,
      "type": "SCALAR"
    }
  ],
  "asset": {
    "extras": {
      "author": "Xplico (https://sketchfab.com/xplico)",
      "license": "CC-BY-4.0 (http://creativecommons.org/licenses/by/4.0/)",
      "source": "https://sketchfab.com/3d-models/picture-frame-8313ca51896e444a93ed8a7dd7487237",
      "title": "Picture Frame"
    },
    "generator": "Sketchfab-15.42.0",
    "version": "2.0"
  },
  "bufferViews": [
    {
      "buffer": 0,
      "byteLength": 3780,
      "name": "floatBufferViews",
      "target": 34963
    },
    {
      "buffer": 0,
      "byteLength": 3384,
      "byteOffset": 3780,
      "byteStride": 8,
      "name": "floatBufferViews",
      "target": 34962
    },
    {
      "buffer": 0,
      "byteLength": 10152,
      "byteOffset": 7164,
      "byteStride": 12,
      "name": "floatBufferViews",
      "target": 34962
    }
  ],
  "buffers": [
    {
      "byteLength": 17316,
      "uri": "scene.bin"
    }
  ],
  "images": [
    {
      "uri": "textures/StandingPicture_baseColor.png"
    }
  ],
  "materials": [
    {
      "doubleSided": true,
      "name": "StandingPicture",
      "pbrMetallicRoughness": {
        "baseColorTexture": {
          "index": 0
        },
        "metallicFactor": 0.0,
        "roughnessFactor": 0.8211145618000169
      }
    },
    {
      "alphaMode": "BLEND",
      "doubleSided": true,
      "name": "Glass",
      "pbrMetallicRoughness": {
        "baseColorFactor": [
          0.575569,
          0.754387,
          0.8,
          0.09917074368612931
        ],
        "metallicFactor": 0.0,
        "roughnessFactor": 0.8390783377246258
      }
    },
    {
      "doubleSided": true,
      "name": "Metal",
      "pbrMetallicRoughness": {
        "baseColorTexture": {
          "index": 0
        },
        "metallicFactor": 0.974,
        "roughnessFactor": 0.162
      }
    }
  ],
  "meshes": [
    {
      "name": "Picture_StandingPicture_0",
      "primitives": [
        {
          "attributes": {
            "NORMAL": 1,
            "POSITION": 0,
            "TEXCOORD_0": 2
          },
          "indices": 3,
          "material": 0,
          "mode": 4
        }
      ]
    },
    {
      "name": "Picture_Glass_0",
      "primitives": [
        {
          "attributes": {
            "NORMAL": 5,
            "POSITION": 4,
            "TEXCOORD_0": 6
          },
          "indices": 7,
          "material": 1,
          "mode": 4
        }
      ]
    },
    {
      "name": "Picture_Metal_0",
      "primitives": [
        {
          "attributes": {
            "NORMAL": 9,
            "POSITION": 8,
            "TEXCOORD_0": 10
          },
          "indices": 11,
          "material": 2,
          "mode": 4
        }
      ]
    }
  ],
  "nodes": [
    {
      "children": [
        1
      ],
      "matrix": [
        1.0,
        0.0,
        0.0,
        0.0,
        0.0,
        2.220446049250313e-16,
        -1.0,
        0.0,
        0.0,
        1.0,
        2.220446049250313e-16,
        0.0,
        0.0,
        0.0,
        0.0,
        1.0
      ],
      "name": "Sketchfab_model"
    },
    {
      "children": [
        2
      ],
      "matrix": [
        1.0,
        0.0,
        0.0,
        0.0,
        0.0,
        0.0,
        1.0,
        0.0,
        0.0,
        -1.0,
        0.0,
        0.0,
        0.0,
        0.0,
        0.0,
        1.0
      ],
      "name": "cdfe7c5c10434e4e9babe96d1d48441c.fbx"
    },
    {
      "children": [
        3
      ],
      "name": "RootNode"
    },
    {
      "children": [
        4,
        5,
        6
      ],
      "matrix": [
        0.07904852298117288,
        0.010406938170661932,
        -4.3956075527822864e-10,
        0.0,
        1.5799513780612173e-08,
        -1.622464702588644e-07,
        -0.9999999999999868,
        0.0,
        -0.18507733174153576,
        1.4058015404288984,
        -2.3101046965724382e-07,
        0.0,
        -1.4901161193847656e-08,
        0.0,
        0.0,
        1.0
      ],
      "name": "Picture"
    },
    {
      "mesh": 0,
      "name": "Picture_StandingPicture_0"
    },
    {
      "mesh": 1,
      "name": "Picture_Glass_0"
    },
    {
      "mesh": 2,
      "name": "Picture_Metal_0"
    }
  ],
  "samplers": [
    {
      "magFilter": 9729,
      "minFilter": 9987,
      "wrapS": 10497,
      "wrapT": 10497
    }
  ],
  "scene": 0,
  "scenes": [
    {
      "name": "Sketchfab_Scene",
      "nodes": [
        0
      ]
    }
  ],
  "textures": [
    {
      "sampler": 0,
      "source": 0
    }
  ]
}
