{
  "accessors": [
    {
      "bufferView": 2,
      "componentType": 5126,
      "count": 581,
      "max": [
        0.35000020265579224,
        0.8732118606567383,
        0.630465567111969
      ],
      "min": [
        -0.3500000536441803,
        -0.8732118606567383,
        0.0
      ],
      "type": "VEC3"
    },
    {
      "bufferView": 2,
      "byteOffset": 6972,
      "componentType": 5126,
      "count": 581,
      "max": [
        1.0,
        0.9946354627609253,
        0.997245728969574
      ],
      "min": [
        -1.0,
        -0.9946354627609253,
        -1.0
      ],
      "type": "VEC3"
    },
    {
      "bufferView": 3,
      "componentType": 5126,
      "count": 581,
      "max": [
        1.0,
        0.9974439740180969,
        1.0,
        1.0
      ],
      "min": [
        -0.9959936141967773,
        -0.9986588954925537,
        -1.0,
        1.0
      ],
      "type": "VEC4"
    },
    {
      "bufferView": 1,
      "componentType": 5126,
      "count": 581,
      "max": [
        0.9918725490570068,
        0.9911482334136963
      ],
      "min": [
        0.007711445912718773,
        0.007914242334663868
      ],
      "type": "VEC2"
    },
    {
      "bufferView": 0,
      "componentType": 5125,
      "count": 2412,
      "type": "SCALAR"
    },
    {
      "bufferView": 2,
      "byteOffset": 13944,
      "componentType": 5126,
      "count": 3523,
      "max": [
        0.10701750218868256,
        1.6689300537109375e-06,
        0.07644438743591309
      ],
      "min": [
        -0.10701726377010345,
        -0.16483885049819946,
        -0.036990176886320114
      ],
      "type": "VEC3"
    },
    {
      "bufferView": 2,
      "byteOffset": 56220,
      "componentType": 5126,
      "count": 3523,
      "max": [
        1.0,
        1.0,
        1.0
      ],
      "min": [
        -1.0,
        -1.0,
        -1.0
      ],
      "type": "VEC3"
    },
    {
      "bufferView": 3,
      "byteOffset": 9296,
      "componentType": 5126,
      "count": 3523,
      "max": [
        1.0,
        1.0,
        1.0,
        1.0
      ],
      "min": [
        -1.0,
        -1.0,
        -1.0,
        -1.0
      ],
      "type": "VEC4"
    },
    {
      "bufferView": 1,
      "byteOffset": 4648,
      "componentType": 5126,
      "count": 3523,
      "max": [
        0.991397500038147,
        0.9931252598762512
      ],
      "min": [
        0.21819773316383362,
        0.4483073055744171
      ],
      "type": "VEC2"
    },
    {
      "bufferView": 0,
      "byteOffset": 9648,
      "componentType": 5125,
      "count": 10980,
      "type": "SCALAR"
    }
  ],
  "asset": {
    "extras": {
      "author": "patrakeevasveta (https://sketchfab.com/patrakeevasveta)",
      "license": "CC-BY-4.0 (http://creativecommons.org/licenses/by/4.0/)",
      "source": "https://sketchfab.com/3d-models/bath-with-sink-800d3c5569b94abfa2da7976504d589d",
      "title": "Bath with sink"
    },
    "generator": "Sketchfab-12.63.0",
    "version": "2.0"
  },
  "bufferViews": [
    {
      "buffer": 0,
      "byteLength": 53568,
      "name": "floatBufferViews",
      "target": 34963
    },
    {
      "buffer": 0,
      "byteLength": 32832,
      "byteOffset": 53568,
      "byteStride": 8,
      "name": "floatBufferViews",
      "target": 34962
    },
    {
      "buffer": 0,
      "byteLength": 98496,
      "byteOffset": 86400,
      "byteStride": 12,
      "name": "floatBufferViews",
      "target": 34962
    },
    {
      "buffer": 0,
      "byteLength": 65664,
      "byteOffset": 184896,
      "byteStride": 16,
      "name": "floatBufferViews",
      "target": 34962
    }
  ],
  "buffers": [
    {
      "byteLength": 250560,
      "uri": "scene.bin"
    }
  ],
  "images": [
    {
      "uri": "textures/bath_baseColor.png"
    },
    {
      "uri": "textures/bath_metallicRoughness.png"
    },
    {
      "uri": "textures/bath_normal.png"
    }
  ],
  "materials": [
    {
      "doubleSided": true,
      "name": "bath",
      "normalTexture": {
        "index": 2
      },
      "pbrMetallicRoughness": {
        "baseColorTexture": {
          "index": 0
        },
        "metallicRoughnessTexture": {
          "index": 1
        }
      }
    }
  ],
  "meshes": [
    {
      "name": "bath_bath_0",
      "primitives": [
        {
          "attributes": {
            "NORMAL": 1,
            "POSITION": 0,
            "TANGENT": 2,
            "TEXCOORD_0": 3
          },
          "indices": 4,
          "material": 0,
          "mode": 4
        }
      ]
    },
    {
      "name": "sink_bath_0",
      "primitives": [
        {
          "attributes": {
            "NORMAL": 6,
            "POSITION": 5,
            "TANGENT": 7,
            "TEXCOORD_0": 8
          },
          "indices": 9,
          "material": 0,
          "mode": 4
        }
      ]
    }
  ],
  "nodes": [
    {
      "children": [
        1
      ],
      "matrix": [
        0.009999999776482582,
        0.0,
        0.0,
        0.0,
        0.0,
        2.2204459996194763e-18,
        -0.009999999776482582,
        0.0,
        0.0,
        0.009999999776482582,
        2.2204459996194763e-18,
        0.0,
        0.0,
        0.0,
        0.0,
        1.0
      ],
      "name": "Sketchfab_model"
    },
    {
      "children": [
        2
      ],
      "matrix": [
        1.0,
        0.0,
        0.0,
        0.0,
        0.0,
        0.0,
        1.0,
        0.0,
        0.0,
        -1.0,
        0.0,
        0.0,
        0.0,
        0.0,
        0.0,
        1.0
      ],
      "name": "bath.fbx"
    },
    {
      "children": [
        3
      ],
      "name": "RootNode"
    },
    {
      "children": [
        4,
        5
      ],
      "matrix": [
        100.0,
        0.0,
        0.0,
        0.0,
        -0.0,
        -1.629206793918314e-05,
        -99.99999999999868,
        0.0,
        0.0,
        99.99999999999868,
        -1.629206793918314e-05,
        0.0,
        -77.62433624267578,
        10.268259048461914,
        469.8221740722656,
        1.0
      ],
      "name": "bath"
    },
    {
      "mesh": 0,
      "name": "bath_bath_0"
    },
    {
      "children": [
        6
      ],
      "matrix": [
        1.0,
        0.0,
        0.0,
        0.0,
        0.0,
        1.0,
        -2.646977960169688e-23,
        0.0,
        0.0,
        2.646977960169688e-23,
        1.0,
        0.0,
        -1.1920928955078125e-07,
        0.8745076656341553,
        0.713384747505188,
        1.0
      ],
      "name": "sink"
    },
    {
      "mesh": 1,
      "name": "sink_bath_0"
    }
  ],
  "samplers": [
    {
      "magFilter": 9729,
      "minFilter": 9987,
      "wrapS": 10497,
      "wrapT": 10497
    }
  ],
  "scene": 0,
  "scenes": [
    {
      "name": "Sketchfab_Scene",
      "nodes": [
        0
      ]
    }
  ],
  "textures": [
    {
      "sampler": 0,
      "source": 0
    },
    {
      "sampler": 0,
      "source": 1
    },
    {
      "sampler": 0,
      "source": 2
    }
  ]
}
