{
  "accessors": [
    {
      "bufferView": 2,
      "componentType": 5126,
      "count": 1822,
      "max": [
        -42.89158630371094,
        -81.4822998046875,
        23.933210372924805
      ],
      "min": [
        -54.75459671020508,
        -95.74885559082031,
        1.7633990049362183
      ],
      "type": "VEC3"
    },
    {
      "bufferView": 2,
      "byteOffset": 21864,
      "componentType": 5126,
      "count": 1822,
      "max": [
        0.9996696710586548,
        0.999987006187439,
        0.9999826550483704
      ],
      "min": [
        -0.9996700286865234,
        -0.9999871253967285,
        -1.0
      ],
      "type": "VEC3"
    },
    {
      "bufferView": 3,
      "componentType": 5126,
      "count": 1822,
      "max": [
        0.9997320175170898,
        0.9964524507522583,
        0.9999478459358215,
        1.0
      ],
      "min": [
        -0.9909855723381042,
        -0.9999889135360718,
        -0.9977124929428101,
        -1.0
      ],
      "type": "VEC4"
    },
    {
      "bufferView": 1,
      "componentType": 5126,
      "count": 1822,
      "max": [
        0.9963700175285339,
        1.0
      ],
      "min": [
        0.0,
        0.0
      ],
      "type": "VEC2"
    },
    {
      "bufferView": 0,
      "componentType": 5125,
      "count": 5592,
      "type": "SCALAR"
    },
    {
      "bufferView": 2,
      "byteOffset": 43728,
      "componentType": 5126,
      "count": 1468,
      "max": [
        -45.52391052246094,
        -81.78533935546875,
        16.67110824584961
      ],
      "min": [
        -50.67631530761719,
        -95.40744018554688,
        13.647411346435547
      ],
      "type": "VEC3"
    },
    {
      "bufferView": 2,
      "byteOffset": 61344,
      "componentType": 5126,
      "count": 1468,
      "max": [
        0.9933415055274963,
        1.0,
        1.0
      ],
      "min": [
        -1.0,
        -1.0,
        -1.0
      ],
      "type": "VEC3"
    },
    {
      "bufferView": 3,
      "byteOffset": 29152,
      "componentType": 5126,
      "count": 1468,
      "max": [
        0.9998850226402283,
        0.999991238117218,
        0.9999958872795105,
        1.0
      ],
      "min": [
        -0.9998370409011841,
        -0.9999181628227234,
        -0.9999929666519165,
        -1.0
      ],
      "type": "VEC4"
    },
    {
      "bufferView": 1,
      "byteOffset": 14576,
      "componentType": 5126,
      "count": 1468,
      "max": [
        0.9346510171890259,
        0.09458699822425842
      ],
      "min": [
        0.0,
        3.199999991920777e-05
      ],
      "type": "VEC2"
    },
    {
      "bufferView": 0,
      "byteOffset": 22368,
      "componentType": 5125,
      "count": 3828,
      "type": "SCALAR"
    }
  ],
  "asset": {
    "extras": {
      "author": "CurlyFryWhy (https://sketchfab.com/CurlyFryWhy)",
      "license": "CC-BY-4.0 (http://creativecommons.org/licenses/by/4.0/)",
      "source": "https://sketchfab.com/3d-models/old-wooden-ladder-5e818740606642c0885b32bda78cd479",
      "title": "Old Wooden Ladder"
    },
    "generator": "Sketchfab-15.37.0",
    "version": "2.0"
  },
  "bufferViews": [
    {
      "buffer": 0,
      "byteLength": 37680,
      "name": "floatBufferViews",
      "target": 34963
    },
    {
      "buffer": 0,
      "byteLength": 26320,
      "byteOffset": 37680,
      "byteStride": 8,
      "name": "floatBufferViews",
      "target": 34962
    },
    {
      "buffer": 0,
      "byteLength": 78960,
      "byteOffset": 64000,
      "byteStride": 12,
      "name": "floatBufferViews",
      "target": 34962
    },
    {
      "buffer": 0,
      "byteLength": 52640,
      "byteOffset": 142960,
      "byteStride": 16,
      "name": "floatBufferViews",
      "target": 34962
    }
  ],
  "buffers": [
    {
      "byteLength": 195600,
      "uri": "scene.bin"
    }
  ],
  "images": [
    {
      "uri": "textures/lambert8SG_baseColor.png"
    },
    {
      "uri": "textures/lambert8SG_metallicRoughness.png"
    },
    {
      "uri": "textures/lambert8SG_normal.png"
    },
    {
      "uri": "textures/lambert9SG_baseColor.png"
    },
    {
      "uri": "textures/lambert9SG_metallicRoughness.png"
    },
    {
      "uri": "textures/lambert9SG_normal.png"
    }
  ],
  "materials": [
    {
      "doubleSided": true,
      "name": "lambert8SG",
      "normalTexture": {
        "index": 2
      },
      "pbrMetallicRoughness": {
        "baseColorTexture": {
          "index": 0
        },
        "metallicRoughnessTexture": {
          "index": 1
        }
      }
    },
    {
      "doubleSided": true,
      "name": "lambert9SG",
      "normalTexture": {
        "index": 5
      },
      "pbrMetallicRoughness": {
        "baseColorTexture": {
          "index": 3
        },
        "metallicRoughnessTexture": {
          "index": 4
        }
      }
    }
  ],
  "meshes": [
    {
      "name": "Object_0",
      "primitives": [
        {
          "attributes": {
            "NORMAL": 1,
            "POSITION": 0,
            "TANGENT": 2,
            "TEXCOORD_0": 3
          },
          "indices": 4,
          "material": 0,
          "mode": 4
        }
      ]
    },
    {
      "name": "Object_1",
      "primitives": [
        {
          "attributes": {
            "NORMAL": 6,
            "POSITION": 5,
            "TANGENT": 7,
            "TEXCOORD_0": 8
          },
          "indices": 9,
          "material": 1,
          "mode": 4
        }
      ]
    }
  ],
  "nodes": [
    {
      "children": [
        1
      ],
      "matrix": [
        1.0,
        0.0,
        0.0,
        0.0,
        0.0,
        2.220446049250313e-16,
        -1.0,
        0.0,
        0.0,
        1.0,
        2.220446049250313e-16,
        0.0,
        0.0,
        0.0,
        0.0,
        1.0
      ],
      "name": "Sketchfab_model"
    },
    {
      "children": [
        2,
        3
      ],
      "name": "847f64bdcf4149e6becb0da18bd1d1f3.obj.cleaner.materialmerger.gles"
    },
    {
      "mesh": 0,
      "name": "Object_2"
    },
    {
      "mesh": 1,
      "name": "Object_3"
    }
  ],
  "samplers": [
    {
      "magFilter": 9729,
      "minFilter": 9987,
      "wrapS": 10497,
      "wrapT": 10497
    }
  ],
  "scene": 0,
  "scenes": [
    {
      "name": "Sketchfab_Scene",
      "nodes": [
        0
      ]
    }
  ],
  "textures": [
    {
      "sampler": 0,
      "source": 0
    },
    {
      "sampler": 0,
      "source": 1
    },
    {
      "sampler": 0,
      "source": 2
    },
    {
      "sampler": 0,
      "source": 3
    },
    {
      "sampler": 0,
      "source": 4
    },
    {
      "sampler": 0,
      "source": 5
    }
  ]
}
