{
	"asset":{
		"generator":"Khronos glTF Blender I/O v4.0.44",
		"version":"2.0"
	},
	"extensionsUsed":[
		"KHR_materials_clearcoat"
	],
	"scene":0,
	"scenes":[
		{
			"name":"Scene",
			"nodes":[
				4,
				5,
				6
			]
		}
	],
	"nodes":[
		{
			"mesh":0,
			"name":"Circle.001_Material_0"
		},
		{
			"children":[
				0
			],
			"name":"Circle.001",
			"rotation":[
				-0.70710688829422,
				0,
				0,
				0.7071066498756409
			],
			"scale":[
				100,
				99.99999237060547,
				99.99999237060547
			]
		},
		{
			"children":[
				1
			],
			"name":"RootNode"
		},
		{
			"children":[
				2
			],
			"name":"4f7df45fa8af445e9a9c631ade2faeb7.fbx",
			"rotation":[
				0.70710688829422,
				0,
				0,
				0.7071066498756409
			],
			"scale":[
				0.009999999776482582,
				0.010000000707805157,
				0.010000000707805157
			]
		},
		{
			"children":[
				3
			],
			"name":"Sketchfab_model",
			"rotation":[
				-0.70710688829422,
				0,
				0,
				0.7071066498756409
			]
		},
		{
			"mesh":1,
			"name":"Cylinder",
			"scale":[
				0.438233345746994,
				0.6172998547554016,
				0.4382338225841522
			],
			"translation":[
				-0.0015799733810126781,
				1.0533558130264282,
				-0.0018114503473043442
			]
		},
		{
			"mesh":2,
			"name":"Cylinder.001",
			"rotation":[
				-1,
				0,
				0,
				4.371138828673793e-08
			],
			"scale":[
				0.438233345746994,
				0.20000000298023224,
				0.4382338225841522
			],
			"translation":[
				-0.0015799733810126781,
				0.23255547881126404,
				-0.0018114503473043442
			]
		}
	],
	"materials":[
		{
			"alphaMode":"BLEND",
			"doubleSided":true,
			"extensions":{
				"KHR_materials_clearcoat":{
					"clearcoatFactor":1,
					"clearcoatRoughnessFactor":0.03999999910593033
				}
			},
			"name":"Material.001",
			"pbrMetallicRoughness":{
				"baseColorFactor":[
					0.34593069553375244,
					0.34593069553375244,
					0.34593069553375244,
					0.6187470555305481
				],
				"metallicFactor":0,
				"roughnessFactor":0
			}
		},
		{
			"alphaMode":"BLEND",
			"doubleSided":true,
			"extensions":{
				"KHR_materials_clearcoat":{
					"clearcoatFactor":1,
					"clearcoatRoughnessFactor":0.03999999910593033
				}
			},
			"name":"Material.003",
			"pbrMetallicRoughness":{
				"baseColorFactor":[
					0.1739770472049713,
					0.3483327627182007,
					0.2872655987739563,
					1
				],
				"metallicFactor":0,
				"roughnessFactor":0
			}
		}
	],
	"meshes":[
		{
			"name":"Circle.001_Material_0",
			"primitives":[
				{
					"attributes":{
						"POSITION":0,
						"NORMAL":1,
						"TEXCOORD_0":2
					},
					"indices":3,
					"material":0
				}
			]
		},
		{
			"name":"Cylinder",
			"primitives":[
				{
					"attributes":{
						"POSITION":4,
						"NORMAL":5,
						"TEXCOORD_0":6
					},
					"indices":7,
					"material":1
				}
			]
		},
		{
			"name":"Cylinder.001",
			"primitives":[
				{
					"attributes":{
						"POSITION":8,
						"NORMAL":9,
						"TEXCOORD_0":10
					},
					"indices":7,
					"material":1
				}
			]
		}
	],
	"accessors":[
		{
			"bufferView":0,
			"componentType":5126,
			"count":15602,
			"max":[
				0.9435020089149475,
				0.7175434827804565,
				2.2696011066436768
			],
			"min":[
				-0.7175434827804565,
				-0.7175434827804565,
				-0.0002901554689742625
			],
			"type":"VEC3"
		},
		{
			"bufferView":1,
			"componentType":5126,
			"count":15602,
			"type":"VEC3"
		},
		{
			"bufferView":2,
			"componentType":5126,
			"count":15602,
			"type":"VEC2"
		},
		{
			"bufferView":3,
			"componentType":5123,
			"count":92448,
			"type":"SCALAR"
		},
		{
			"bufferView":4,
			"componentType":5126,
			"count":192,
			"max":[
				1.4173402786254883,
				1,
				1.4173400402069092
			],
			"min":[
				-1.4173402786254883,
				-1,
				-1.4173400402069092
			],
			"type":"VEC3"
		},
		{
			"bufferView":5,
			"componentType":5126,
			"count":192,
			"type":"VEC3"
		},
		{
			"bufferView":6,
			"componentType":5126,
			"count":192,
			"type":"VEC2"
		},
		{
			"bufferView":7,
			"componentType":5123,
			"count":372,
			"type":"SCALAR"
		},
		{
			"bufferView":8,
			"componentType":5126,
			"count":192,
			"max":[
				1.4173402786254883,
				1,
				1.4173400402069092
			],
			"min":[
				-1.4173402786254883,
				-1,
				-1.4173400402069092
			],
			"type":"VEC3"
		},
		{
			"bufferView":9,
			"componentType":5126,
			"count":192,
			"type":"VEC3"
		},
		{
			"bufferView":10,
			"componentType":5126,
			"count":192,
			"type":"VEC2"
		}
	],
	"bufferViews":[
		{
			"buffer":0,
			"byteLength":187224,
			"byteOffset":0,
			"target":34962
		},
		{
			"buffer":0,
			"byteLength":187224,
			"byteOffset":187224,
			"target":34962
		},
		{
			"buffer":0,
			"byteLength":124816,
			"byteOffset":374448,
			"target":34962
		},
		{
			"buffer":0,
			"byteLength":184896,
			"byteOffset":499264,
			"target":34963
		},
		{
			"buffer":0,
			"byteLength":2304,
			"byteOffset":684160,
			"target":34962
		},
		{
			"buffer":0,
			"byteLength":2304,
			"byteOffset":686464,
			"target":34962
		},
		{
			"buffer":0,
			"byteLength":1536,
			"byteOffset":688768,
			"target":34962
		},
		{
			"buffer":0,
			"byteLength":744,
			"byteOffset":690304,
			"target":34963
		},
		{
			"buffer":0,
			"byteLength":2304,
			"byteOffset":691048,
			"target":34962
		},
		{
			"buffer":0,
			"byteLength":2304,
			"byteOffset":693352,
			"target":34962
		},
		{
			"buffer":0,
			"byteLength":1536,
			"byteOffset":695656,
			"target":34962
		}
	],
	"buffers":[
		{
			"byteLength":697192,
			"uri":"mixture.bin"
		}
	]
}
