{
	"asset":{
		"generator":"Khronos glTF Blender I/O v4.0.44",
		"version":"2.0"
	},
	"scene":0,
	"scenes":[
		{
			"name":"Scene",
			"nodes":[
				1
			]
		}
	],
	"nodes":[
		{
			"mesh":0,
			"name":"DoorInside",
			"translation":[
				0.8161448240280151,
				0.9917440414428711,
				-0.14283427596092224
			]
		},
		{
			"children":[
				0
			],
			"mesh":1,
			"name":"DoorOutside",
			"scale":[
				0.75,
				0.75,
				0.75
			],
			"translation":[
				-0.005899548530578613,
				0.7629445791244507,
				0.09345271438360214
			]
		}
	],
	"meshes":[
		{
			"name":"Cube.003",
			"primitives":[
				{
					"attributes":{
						"POSITION":0,
						"NORMAL":1,
						"TEXCOORD_0":2
					},
					"indices":3
				}
			]
		},
		{
			"name":"Cube.002",
			"primitives":[
				{
					"attributes":{
						"POSITION":4,
						"NORMAL":5,
						"TEXCOORD_0":6
					},
					"indices":7
				}
			]
		}
	],
	"accessors":[
		{
			"bufferView":0,
			"componentType":5126,
			"count":24,
			"max":[
				5.239248275756836e-05,
				1.4976162910461426,
				0.048725828528404236
			],
			"min":[
				-1.75132417678833,
				-1.8672075271606445,
				-0.03831210732460022
			],
			"type":"VEC3"
		},
		{
			"bufferView":1,
			"componentType":5126,
			"count":24,
			"type":"VEC3"
		},
		{
			"bufferView":2,
			"componentType":5126,
			"count":24,
			"type":"VEC2"
		},
		{
			"bufferView":3,
			"componentType":5123,
			"count":36,
			"type":"SCALAR"
		},
		{
			"bufferView":4,
			"componentType":5126,
			"count":80,
			"max":[
				0.8810176849365234,
				2.613896369934082,
				0.0038663744926452637
			],
			"min":[
				-1,
				-1,
				-0.26900535821914673
			],
			"type":"VEC3"
		},
		{
			"bufferView":5,
			"componentType":5126,
			"count":80,
			"type":"VEC3"
		},
		{
			"bufferView":6,
			"componentType":5126,
			"count":80,
			"type":"VEC2"
		},
		{
			"bufferView":7,
			"componentType":5123,
			"count":144,
			"type":"SCALAR"
		}
	],
	"bufferViews":[
		{
			"buffer":0,
			"byteLength":288,
			"byteOffset":0,
			"target":34962
		},
		{
			"buffer":0,
			"byteLength":288,
			"byteOffset":288,
			"target":34962
		},
		{
			"buffer":0,
			"byteLength":192,
			"byteOffset":576,
			"target":34962
		},
		{
			"buffer":0,
			"byteLength":72,
			"byteOffset":768,
			"target":34963
		},
		{
			"buffer":0,
			"byteLength":960,
			"byteOffset":840,
			"target":34962
		},
		{
			"buffer":0,
			"byteLength":960,
			"byteOffset":1800,
			"target":34962
		},
		{
			"buffer":0,
			"byteLength":640,
			"byteOffset":2760,
			"target":34962
		},
		{
			"buffer":0,
			"byteLength":288,
			"byteOffset":3400,
			"target":34963
		}
	],
	"buffers":[
		{
			"byteLength":3688,
			"uri":"doors.bin"
		}
	]
}
